<?xml version="1.0" encoding="UTF-8" standalone="no"?>
<!-- Created with Inkscape (http://www.inkscape.org/) -->
<svg
   xmlns:dc="http://purl.org/dc/elements/1.1/"
   xmlns:cc="http://creativecommons.org/ns#"
   xmlns:rdf="http://www.w3.org/1999/02/22-rdf-syntax-ns#"
   xmlns:svg="http://www.w3.org/2000/svg"
   xmlns="http://www.w3.org/2000/svg"
   xmlns:sodipodi="http://sodipodi.sourceforge.net/DTD/sodipodi-0.dtd"
   xmlns:inkscape="http://www.inkscape.org/namespaces/inkscape"
   width="459.84192"
   height="158.75377"
   id="svg3301"
   sodipodi:version="0.32"
   inkscape:version="0.46"
   version="1.0"
   sodipodi:docname="ballbstrich.svg"
   inkscape:output_extension="org.inkscape.output.svg.inkscape">
  <defs
     id="defs3303">
    <inkscape:perspective
       sodipodi:type="inkscape:persp3d"
       inkscape:vp_x="0 : 526.18109 : 1"
       inkscape:vp_y="0 : 1000 : 0"
       inkscape:vp_z="744.09448 : 526.18109 : 1"
       inkscape:persp3d-origin="372.04724 : 350.78739 : 1"
       id="perspective3309" />
  </defs>
  <sodipodi:namedview
     id="base"
     pagecolor="#ffffff"
     bordercolor="#666666"
     borderopacity="1.0"
     inkscape:pageopacity="0.0"
     inkscape:pageshadow="2"
     inkscape:zoom="2.1485644"
     inkscape:cx="229.92096"
     inkscape:cy="79.376884"
     inkscape:document-units="px"
     inkscape:current-layer="layer1"
     showgrid="false"
     inkscape:window-width="1085"
     inkscape:window-height="701"
     inkscape:window-x="141"
     inkscape:window-y="62" />
  <metadata
     id="metadata3306">
    <rdf:RDF>
      <cc:Work
         rdf:about="">
        <dc:format>image/svg+xml</dc:format>
        <dc:type
           rdf:resource="http://purl.org/dc/dcmitype/StillImage" />
      </cc:Work>
    </rdf:RDF>
  </metadata>
  <g
     inkscape:label="Ebene 1"
     inkscape:groupmode="layer"
     id="layer1"
     transform="translate(-36.356574,-504.40021)">
    <path
       sodipodi:type="arc"
       style="opacity:1;fill:none;fill-opacity:1;fill-rule:nonzero;stroke:#000000;stroke-width:1;stroke-miterlimit:4;stroke-dasharray:none;stroke-dashoffset:0;stroke-opacity:1"
       id="path3317"
       sodipodi:cx="122.83347"
       sodipodi:cy="591.58081"
       sodipodi:rx="62.975533"
       sodipodi:ry="62.975533"
       d="M 185.80901,591.58081 A 62.975533,62.975533 0 1 1 59.857941,591.58081 A 62.975533,62.975533 0 1 1 185.80901,591.58081 z"
       transform="translate(52.375691,0)" />
    <path
       sodipodi:type="arc"
       style="opacity:1;fill:none;fill-opacity:1;fill-rule:nonzero;stroke:#000000;stroke-width:1;stroke-miterlimit:4;stroke-dasharray:none;stroke-dashoffset:0;stroke-opacity:1"
       id="path3319"
       sodipodi:cx="122.83347"
       sodipodi:cy="591.58081"
       sodipodi:rx="62.975533"
       sodipodi:ry="62.975533"
       d="M 185.80901,591.58081 A 62.975533,62.975533 0 1 1 59.857941,591.58081 A 62.975533,62.975533 0 1 1 185.80901,591.58081 z"
       transform="translate(309.88949,-0.6235215)" />
    <path
       style="fill:none;fill-rule:evenodd;stroke:#000000;stroke-width:1px;stroke-linecap:butt;stroke-linejoin:miter;stroke-opacity:1"
       d="M 82.130475,538.28625 C 82.130475,538.28625 152.70185,527.33552 175.82005,527.94389 C 198.93826,528.55226 214.75598,535.24438 234.22395,535.24438 C 253.69191,535.24438 263.42589,528.55226 279.85199,527.33552 C 296.27808,526.11877 309.66231,529.76901 315.74605,537.67787 C 321.82979,545.58673 327.30515,571.74681 322.43816,584.52266 C 317.57117,597.29851 310.87906,608.24924 310.27068,615.54973 C 309.66231,622.85022 312.70418,639.88469 305.40369,648.40192 C 298.10321,656.91916 278.63524,665.43639 265.85939,661.78615 C 253.08354,658.1359 246.39142,643.53493 228.14021,638.66794 C 209.88899,633.80095 177.64518,628.93396 164.86932,631.36745 C 152.09347,633.80095 128.36689,645.96843 111.33242,646.5768 C 94.297953,647.18517 62.054137,646.5768 52.320154,634.40932 C 42.586172,622.24184 34.068938,591.82315 37.719181,576.00543 C 41.369424,560.18771 44.411294,547.41186 56.578772,541.32812 C 68.746249,535.24438 81.522101,537.0695 82.130475,538.28625 z"
       id="path3321" />
    <path
       style="fill:none;fill-rule:evenodd;stroke:#000000;stroke-width:1px;stroke-linecap:butt;stroke-linejoin:miter;stroke-opacity:1"
       d="M 434.98733,527.94389 C 434.98733,527.94389 402.13514,544.36999 394.83465,558.36259 C 387.53417,572.35518 381.45043,591.21478 381.45043,602.16551 C 381.45043,613.11624 385.10067,632.5842 387.53417,635.0177 C 389.96766,637.45119 403.96026,643.53493 407.00213,643.53493 C 410.044,643.53493 442.89619,648.40192 450.19668,646.5768 C 457.49716,644.75168 466.62277,643.53493 470.88139,639.88469 C 475.14001,636.23444 480.61537,623.45859 481.22375,616.1581 C 481.83212,608.85762 480.61537,584.52266 475.14001,582.08917 C 469.66464,579.65567 460.53903,563.83795 460.53903,557.75421 C 460.53903,551.67047 459.32229,538.89462 455.06367,535.85275 C 450.80505,532.81088 435.5957,529.16064 434.98733,527.94389 z"
       id="path3323" />
    <text
       xml:space="preserve"
       style="font-size:24px;font-style:normal;font-weight:normal;fill:#000000;fill-opacity:1;stroke:none;stroke-width:1px;stroke-linecap:butt;stroke-linejoin:miter;stroke-opacity:1;font-family:Bitstream Vera Sans"
       x="173.99493"
       y="521.25177"
       id="text3325"><tspan
         sodipodi:role="line"
         id="tspan3327"
         x="173.99493"
         y="521.25177">t</tspan></text>
    <text
       xml:space="preserve"
       style="font-size:24px;font-style:normal;font-weight:normal;fill:#000000;fill-opacity:1;stroke:none;stroke-width:1px;stroke-linecap:butt;stroke-linejoin:miter;stroke-opacity:1;font-family:Bitstream Vera Sans"
       x="128.36688"
       y="661.78613"
       id="text3329"><tspan
         sodipodi:role="line"
         id="tspan3331"
         x="128.36688"
         y="661.78613">r</tspan></text>
    <text
       xml:space="preserve"
       style="font-size:24px;font-style:normal;font-weight:normal;fill:#000000;fill-opacity:1;stroke:none;stroke-width:1px;stroke-linecap:butt;stroke-linejoin:miter;stroke-opacity:1;font-family:Bitstream Vera Sans"
       x="216.58112"
       y="658.13593"
       id="text3333"><tspan
         sodipodi:role="line"
         id="tspan3335"
         x="216.58112"
         y="658.13593">s</tspan></text>
    <text
       xml:space="preserve"
       style="font-size:24px;font-style:normal;font-weight:normal;fill:#000000;fill-opacity:1;stroke:none;stroke-width:1px;stroke-linecap:butt;stroke-linejoin:miter;stroke-opacity:1;font-family:Bitstream Vera Sans"
       x="430.72873"
       y="524.29364"
       id="text3337"><tspan
         sodipodi:role="line"
         id="tspan3339"
         x="430.72873"
         y="524.29364">t</tspan></text>
    <text
       xml:space="preserve"
       style="font-size:24px;font-style:normal;font-weight:normal;fill:#000000;fill-opacity:1;stroke:none;stroke-width:1px;stroke-linecap:butt;stroke-linejoin:miter;stroke-opacity:1;font-family:Bitstream Vera Sans"
       x="371.10806"
       y="649.61865"
       id="text3341"><tspan
         sodipodi:role="line"
         id="tspan3343"
         x="371.10806"
         y="649.61865">r</tspan></text>
    <text
       xml:space="preserve"
       style="font-size:24px;font-style:normal;font-weight:normal;fill:#000000;fill-opacity:1;stroke:none;stroke-width:1px;stroke-linecap:butt;stroke-linejoin:miter;stroke-opacity:1;font-family:Bitstream Vera Sans"
       x="476.35675"
       y="652.05219"
       id="text3345"><tspan
         sodipodi:role="line"
         id="tspan3347"
         x="476.35675"
         y="652.05219">s</tspan></text>
  </g>
</svg>
