<?xml version="1.0" encoding="UTF-8" standalone="no"?>
<!-- Created with Inkscape (http://www.inkscape.org/) -->
<svg
   xmlns:dc="http://purl.org/dc/elements/1.1/"
   xmlns:cc="http://creativecommons.org/ns#"
   xmlns:rdf="http://www.w3.org/1999/02/22-rdf-syntax-ns#"
   xmlns:svg="http://www.w3.org/2000/svg"
   xmlns="http://www.w3.org/2000/svg"
   xmlns:sodipodi="http://sodipodi.sourceforge.net/DTD/sodipodi-0.dtd"
   xmlns:inkscape="http://www.inkscape.org/namespaces/inkscape"
   width="498.48126"
   height="261.80219"
   id="svg3794"
   sodipodi:version="0.32"
   inkscape:version="0.46"
   version="1.0"
   sodipodi:docname="kurve.svg"
   inkscape:output_extension="org.inkscape.output.svg.inkscape">
  <defs
     id="defs3796">
    <inkscape:perspective
       sodipodi:type="inkscape:persp3d"
       inkscape:vp_x="0 : 526.18109 : 1"
       inkscape:vp_y="0 : 1000 : 0"
       inkscape:vp_z="744.09448 : 526.18109 : 1"
       inkscape:persp3d-origin="372.04724 : 350.78739 : 1"
       id="perspective3802" />
  </defs>
  <sodipodi:namedview
     id="base"
     pagecolor="#ffffff"
     bordercolor="#666666"
     borderopacity="1.0"
     inkscape:pageopacity="0.0"
     inkscape:pageshadow="2"
     inkscape:zoom="0.28794557"
     inkscape:cx="351.10951"
     inkscape:cy="403.3027"
     inkscape:document-units="px"
     inkscape:current-layer="layer1"
     showgrid="false"
     inkscape:window-width="1090"
     inkscape:window-height="704"
     inkscape:window-x="20"
     inkscape:window-y="50" />
  <metadata
     id="metadata3799">
    <rdf:RDF>
      <cc:Work
         rdf:about="">
        <dc:format>image/svg+xml</dc:format>
        <dc:type
           rdf:resource="http://purl.org/dc/dcmitype/StillImage" />
      </cc:Work>
    </rdf:RDF>
  </metadata>
  <g
     inkscape:label="Ebene 1"
     inkscape:groupmode="layer"
     id="layer1"
     transform="translate(-112.82841,-216.48241)">
    <path
       style="fill:none;fill-rule:evenodd;stroke:#000000;stroke-width:1px;stroke-linecap:butt;stroke-linejoin:miter;stroke-opacity:1"
       d="M 150.52284,368.84044 C 150.52284,368.84044 143.40069,317.48324 186.30286,286.17625 C 231.95323,252.86383 278.83739,261.50038 309.68223,296.04661 C 340.52708,330.59283 388.87369,342.51422 409.61953,313.31972 C 440.09193,270.43757 449.10093,255.33141 518.19338,255.33141 C 585.22824,255.33141 610.72791,304.68316 609.49412,358.97009 C 608.277,412.52337 574.92375,475.86123 513.25821,477.41429 C 451.71025,478.99546 427.37864,424.91814 368.90434,423.12737 C 320.7941,421.62223 301.04568,451.50462 255.39531,449.03703 C 209.74494,446.56944 143.12008,405.85425 150.52284,368.84044 z"
       id="path3808"
       sodipodi:nodetypes="cssssssssc" />
    <path
       sodipodi:type="arc"
       style="opacity:1;fill:#000000;fill-opacity:1;stroke:#000000;stroke-width:0.5;stroke-miterlimit:4;stroke-dasharray:none;stroke-dashoffset:7.9;stroke-opacity:1"
       id="path5777"
       sodipodi:cx="222.2601"
       sodipodi:cy="231.49397"
       sodipodi:rx="1.5564433"
       sodipodi:ry="1.5564433"
       d="M 223.81654,231.49397 A 1.5564433,1.5564433 0 1 1 220.70366,231.49397 A 1.5564433,1.5564433 0 1 1 223.81654,231.49397 z"
       transform="translate(50.117481,38.599792)" />
    <path
       sodipodi:type="arc"
       style="opacity:1;fill:#000000;fill-opacity:1;stroke:#000000;stroke-width:0.5;stroke-miterlimit:4;stroke-dasharray:none;stroke-dashoffset:7.9;stroke-opacity:1"
       id="path5779"
       sodipodi:cx="222.2601"
       sodipodi:cy="231.49397"
       sodipodi:rx="1.5564433"
       sodipodi:ry="1.5564433"
       d="M 223.81654,231.49397 A 1.5564433,1.5564433 0 1 1 220.70366,231.49397 A 1.5564433,1.5564433 0 1 1 223.81654,231.49397 z"
       transform="translate(65.214982,45.759432)" />
    <path
       sodipodi:type="arc"
       style="opacity:1;fill:#000000;fill-opacity:1;stroke:#000000;stroke-width:0.5;stroke-miterlimit:4;stroke-dasharray:none;stroke-dashoffset:7.9;stroke-opacity:1"
       id="path5781"
       sodipodi:cx="222.2601"
       sodipodi:cy="231.49397"
       sodipodi:rx="1.5564433"
       sodipodi:ry="1.5564433"
       d="M 223.81654,231.49397 A 1.5564433,1.5564433 0 1 1 220.70366,231.49397 A 1.5564433,1.5564433 0 1 1 223.81654,231.49397 z"
       transform="translate(77.043951,54.31987)" />
    <path
       sodipodi:type="arc"
       style="opacity:1;fill:#000000;fill-opacity:1;stroke:#000000;stroke-width:0.5;stroke-miterlimit:4;stroke-dasharray:none;stroke-dashoffset:7.9;stroke-opacity:1"
       id="path5783"
       sodipodi:cx="222.2601"
       sodipodi:cy="231.49397"
       sodipodi:rx="1.5564433"
       sodipodi:ry="1.5564433"
       d="M 223.81654,231.49397 A 1.5564433,1.5564433 0 1 1 220.70366,231.49397 A 1.5564433,1.5564433 0 1 1 223.81654,231.49397 z"
       transform="translate(89.962431,67.705283)" />
    <path
       sodipodi:type="arc"
       style="opacity:1;fill:#000000;fill-opacity:1;stroke:#000000;stroke-width:0.5;stroke-miterlimit:4;stroke-dasharray:none;stroke-dashoffset:7.9;stroke-opacity:1"
       id="path5785"
       sodipodi:cx="222.2601"
       sodipodi:cy="231.49397"
       sodipodi:rx="1.5564433"
       sodipodi:ry="1.5564433"
       d="M 223.81654,231.49397 A 1.5564433,1.5564433 0 1 1 220.70366,231.49397 A 1.5564433,1.5564433 0 1 1 223.81654,231.49397 z"
       transform="translate(101.94704,78.600386)" />
    <path
       sodipodi:type="arc"
       style="opacity:1;fill:#000000;fill-opacity:1;stroke:#000000;stroke-width:0.5;stroke-miterlimit:4;stroke-dasharray:none;stroke-dashoffset:7.9;stroke-opacity:1"
       id="path5787"
       sodipodi:cx="222.2601"
       sodipodi:cy="231.49397"
       sodipodi:rx="1.5564433"
       sodipodi:ry="1.5564433"
       d="M 223.81654,231.49397 A 1.5564433,1.5564433 0 1 1 220.70366,231.49397 A 1.5564433,1.5564433 0 1 1 223.81654,231.49397 z"
       transform="translate(117.82277,88.561623)" />
    <path
       sodipodi:type="arc"
       style="opacity:1;fill:#000000;fill-opacity:1;stroke:#000000;stroke-width:0.5;stroke-miterlimit:4;stroke-dasharray:none;stroke-dashoffset:7.9;stroke-opacity:1"
       id="path5789"
       sodipodi:cx="222.2601"
       sodipodi:cy="231.49397"
       sodipodi:rx="1.5564433"
       sodipodi:ry="1.5564433"
       d="M 223.81654,231.49397 A 1.5564433,1.5564433 0 1 1 220.70366,231.49397 A 1.5564433,1.5564433 0 1 1 223.81654,231.49397 z"
       transform="translate(135.72186,95.876907)" />
    <path
       sodipodi:type="arc"
       style="opacity:1;fill:#000000;fill-opacity:1;stroke:#000000;stroke-width:0.5;stroke-miterlimit:4;stroke-dasharray:none;stroke-dashoffset:7.9;stroke-opacity:1"
       id="path5791"
       sodipodi:cx="222.2601"
       sodipodi:cy="231.49397"
       sodipodi:rx="1.5564433"
       sodipodi:ry="1.5564433"
       d="M 223.81654,231.49397 A 1.5564433,1.5564433 0 1 1 220.70366,231.49397 A 1.5564433,1.5564433 0 1 1 223.81654,231.49397 z"
       transform="translate(156.42256,98.055928)" />
    <path
       sodipodi:type="arc"
       style="opacity:1;fill:#000000;fill-opacity:1;stroke:#000000;stroke-width:0.5;stroke-miterlimit:4;stroke-dasharray:none;stroke-dashoffset:7.9;stroke-opacity:1"
       id="path5793"
       sodipodi:cx="222.2601"
       sodipodi:cy="231.49397"
       sodipodi:rx="1.5564433"
       sodipodi:ry="1.5564433"
       d="M 223.81654,231.49397 A 1.5564433,1.5564433 0 1 1 220.70366,231.49397 A 1.5564433,1.5564433 0 1 1 223.81654,231.49397 z"
       transform="translate(181.94823,88.09469)" />
    <path
       sodipodi:type="arc"
       style="opacity:1;fill:#000000;fill-opacity:1;stroke:#000000;stroke-width:0.5;stroke-miterlimit:4;stroke-dasharray:none;stroke-dashoffset:7.9;stroke-opacity:1"
       id="path5795"
       sodipodi:cx="222.2601"
       sodipodi:cy="231.49397"
       sodipodi:rx="1.5564433"
       sodipodi:ry="1.5564433"
       d="M 223.81654,231.49397 A 1.5564433,1.5564433 0 1 1 220.70366,231.49397 A 1.5564433,1.5564433 0 1 1 223.81654,231.49397 z"
       transform="translate(200.7812,62.724664)" />
    <path
       sodipodi:type="arc"
       style="opacity:1;fill:#000000;fill-opacity:1;stroke:#000000;stroke-width:0.5;stroke-miterlimit:4;stroke-dasharray:none;stroke-dashoffset:7.9;stroke-opacity:1"
       id="path5797"
       sodipodi:cx="222.2601"
       sodipodi:cy="231.49397"
       sodipodi:rx="1.5564433"
       sodipodi:ry="1.5564433"
       d="M 223.81654,231.49397 A 1.5564433,1.5564433 0 1 1 220.70366,231.49397 A 1.5564433,1.5564433 0 1 1 223.81654,231.49397 z"
       transform="translate(221.32625,40.778813)" />
    <path
       sodipodi:type="arc"
       style="opacity:1;fill:#000000;fill-opacity:1;stroke:#000000;stroke-width:0.5;stroke-miterlimit:4;stroke-dasharray:none;stroke-dashoffset:7.9;stroke-opacity:1"
       id="path5799"
       sodipodi:cx="222.2601"
       sodipodi:cy="231.49397"
       sodipodi:rx="1.5564433"
       sodipodi:ry="1.5564433"
       d="M 223.81654,231.49397 A 1.5564433,1.5564433 0 1 1 220.70366,231.49397 A 1.5564433,1.5564433 0 1 1 223.81654,231.49397 z"
       transform="translate(252.14383,27.082112)" />
    <path
       sodipodi:type="arc"
       style="opacity:1;fill:#000000;fill-opacity:1;stroke:#000000;stroke-width:0.5;stroke-miterlimit:4;stroke-dasharray:none;stroke-dashoffset:7.9;stroke-opacity:1"
       id="path5801"
       sodipodi:cx="222.2601"
       sodipodi:cy="231.49397"
       sodipodi:rx="1.5564433"
       sodipodi:ry="1.5564433"
       d="M 223.81654,231.49397 A 1.5564433,1.5564433 0 1 1 220.70366,231.49397 A 1.5564433,1.5564433 0 1 1 223.81654,231.49397 z"
       transform="translate(283.11705,23.969225)" />
    <path
       sodipodi:type="arc"
       style="opacity:1;fill:#000000;fill-opacity:1;stroke:#000000;stroke-width:0.5;stroke-miterlimit:4;stroke-dasharray:none;stroke-dashoffset:7.9;stroke-opacity:1"
       id="path5803"
       sodipodi:cx="222.2601"
       sodipodi:cy="231.49397"
       sodipodi:rx="1.5564433"
       sodipodi:ry="1.5564433"
       d="M 223.81654,231.49397 A 1.5564433,1.5564433 0 1 1 220.70366,231.49397 A 1.5564433,1.5564433 0 1 1 223.81654,231.49397 z"
       transform="translate(306.61934,24.280514)" />
    <path
       sodipodi:type="arc"
       style="opacity:1;fill:#000000;fill-opacity:1;stroke:#000000;stroke-width:0.5;stroke-miterlimit:4;stroke-dasharray:none;stroke-dashoffset:7.9;stroke-opacity:1"
       id="path5805"
       sodipodi:cx="222.2601"
       sodipodi:cy="231.49397"
       sodipodi:rx="1.5564433"
       sodipodi:ry="1.5564433"
       d="M 223.81654,231.49397 A 1.5564433,1.5564433 0 1 1 220.70366,231.49397 A 1.5564433,1.5564433 0 1 1 223.81654,231.49397 z"
       transform="translate(335.56919,30.97322)" />
    <path
       sodipodi:type="arc"
       style="opacity:1;fill:#000000;fill-opacity:1;stroke:#000000;stroke-width:0.5;stroke-miterlimit:4;stroke-dasharray:none;stroke-dashoffset:7.9;stroke-opacity:1"
       id="path5807"
       sodipodi:cx="222.2601"
       sodipodi:cy="231.49397"
       sodipodi:rx="1.5564433"
       sodipodi:ry="1.5564433"
       d="M 223.81654,231.49397 A 1.5564433,1.5564433 0 1 1 220.70366,231.49397 A 1.5564433,1.5564433 0 1 1 223.81654,231.49397 z"
       transform="translate(355.64731,43.269122)" />
    <path
       sodipodi:type="arc"
       style="opacity:1;fill:#000000;fill-opacity:1;stroke:#000000;stroke-width:0.5;stroke-miterlimit:4;stroke-dasharray:none;stroke-dashoffset:7.9;stroke-opacity:1"
       id="path5809"
       sodipodi:cx="222.2601"
       sodipodi:cy="231.49397"
       sodipodi:rx="1.5564433"
       sodipodi:ry="1.5564433"
       d="M 223.81654,231.49397 A 1.5564433,1.5564433 0 1 1 220.70366,231.49397 A 1.5564433,1.5564433 0 1 1 223.81654,231.49397 z"
       transform="translate(373.07947,63.969819)" />
    <path
       sodipodi:type="arc"
       style="opacity:1;fill:#000000;fill-opacity:1;stroke:#000000;stroke-width:0.5;stroke-miterlimit:4;stroke-dasharray:none;stroke-dashoffset:7.9;stroke-opacity:1"
       id="path5811"
       sodipodi:cx="222.2601"
       sodipodi:cy="231.49397"
       sodipodi:rx="1.5564433"
       sodipodi:ry="1.5564433"
       d="M 223.81654,231.49397 A 1.5564433,1.5564433 0 1 1 220.70366,231.49397 A 1.5564433,1.5564433 0 1 1 223.81654,231.49397 z"
       transform="translate(382.26249,87.00518)" />
    <path
       sodipodi:type="arc"
       style="opacity:1;fill:#000000;fill-opacity:1;stroke:#000000;stroke-width:0.5;stroke-miterlimit:4;stroke-dasharray:none;stroke-dashoffset:7.9;stroke-opacity:1"
       id="path5813"
       sodipodi:cx="222.2601"
       sodipodi:cy="231.49397"
       sodipodi:rx="1.5564433"
       sodipodi:ry="1.5564433"
       d="M 223.81654,231.49397 A 1.5564433,1.5564433 0 1 1 220.70366,231.49397 A 1.5564433,1.5564433 0 1 1 223.81654,231.49397 z"
       transform="translate(387.24311,120.00178)" />
    <path
       sodipodi:type="arc"
       style="opacity:1;fill:#000000;fill-opacity:1;stroke:#000000;stroke-width:0.5;stroke-miterlimit:4;stroke-dasharray:none;stroke-dashoffset:7.9;stroke-opacity:1"
       id="path5815"
       sodipodi:cx="222.2601"
       sodipodi:cy="231.49397"
       sodipodi:rx="1.5564433"
       sodipodi:ry="1.5564433"
       d="M 223.81654,231.49397 A 1.5564433,1.5564433 0 1 1 220.70366,231.49397 A 1.5564433,1.5564433 0 1 1 223.81654,231.49397 z"
       transform="translate(383.66329,156.5782)" />
    <path
       sodipodi:type="arc"
       style="opacity:1;fill:#000000;fill-opacity:1;stroke:#000000;stroke-width:0.5;stroke-miterlimit:4;stroke-dasharray:none;stroke-dashoffset:7.9;stroke-opacity:1"
       id="path5817"
       sodipodi:cx="222.2601"
       sodipodi:cy="231.49397"
       sodipodi:rx="1.5564433"
       sodipodi:ry="1.5564433"
       d="M 223.81654,231.49397 A 1.5564433,1.5564433 0 1 1 220.70366,231.49397 A 1.5564433,1.5564433 0 1 1 223.81654,231.49397 z"
       transform="translate(374.63592,183.03773)" />
    <path
       sodipodi:type="arc"
       style="opacity:1;fill:#000000;fill-opacity:1;stroke:#000000;stroke-width:0.5;stroke-miterlimit:4;stroke-dasharray:none;stroke-dashoffset:7.9;stroke-opacity:1"
       id="path5819"
       sodipodi:cx="222.2601"
       sodipodi:cy="231.49397"
       sodipodi:rx="1.5564433"
       sodipodi:ry="1.5564433"
       d="M 223.81654,231.49397 A 1.5564433,1.5564433 0 1 1 220.70366,231.49397 A 1.5564433,1.5564433 0 1 1 223.81654,231.49397 z"
       transform="translate(365.76419,200.31425)" />
    <path
       sodipodi:type="arc"
       style="opacity:1;fill:#000000;fill-opacity:1;stroke:#000000;stroke-width:0.5;stroke-miterlimit:4;stroke-dasharray:none;stroke-dashoffset:7.9;stroke-opacity:1"
       id="path5821"
       sodipodi:cx="222.2601"
       sodipodi:cy="231.49397"
       sodipodi:rx="1.5564433"
       sodipodi:ry="1.5564433"
       d="M 223.81654,231.49397 A 1.5564433,1.5564433 0 1 1 220.70366,231.49397 A 1.5564433,1.5564433 0 1 1 223.81654,231.49397 z"
       transform="translate(356.11424,213.69967)" />
    <path
       sodipodi:type="arc"
       style="opacity:1;fill:#000000;fill-opacity:1;stroke:#000000;stroke-width:0.5;stroke-miterlimit:4;stroke-dasharray:none;stroke-dashoffset:7.9;stroke-opacity:1"
       id="path5823"
       sodipodi:cx="222.2601"
       sodipodi:cy="231.49397"
       sodipodi:rx="1.5564433"
       sodipodi:ry="1.5564433"
       d="M 223.81654,231.49397 A 1.5564433,1.5564433 0 1 1 220.70366,231.49397 A 1.5564433,1.5564433 0 1 1 223.81654,231.49397 z"
       transform="translate(335.88048,231.75441)" />
    <path
       sodipodi:type="arc"
       style="opacity:1;fill:#000000;fill-opacity:1;stroke:#000000;stroke-width:0.5;stroke-miterlimit:4;stroke-dasharray:none;stroke-dashoffset:7.9;stroke-opacity:1"
       id="path5825"
       sodipodi:cx="222.2601"
       sodipodi:cy="231.49397"
       sodipodi:rx="1.5564433"
       sodipodi:ry="1.5564433"
       d="M 223.81654,231.49397 A 1.5564433,1.5564433 0 1 1 220.70366,231.49397 A 1.5564433,1.5564433 0 1 1 223.81654,231.49397 z"
       transform="translate(308.33143,243.58338)" />
    <path
       sodipodi:type="arc"
       style="opacity:1;fill:#000000;fill-opacity:1;stroke:#000000;stroke-width:0.5;stroke-miterlimit:4;stroke-dasharray:none;stroke-dashoffset:7.9;stroke-opacity:1"
       id="path5827"
       sodipodi:cx="222.2601"
       sodipodi:cy="231.49397"
       sodipodi:rx="1.5564433"
       sodipodi:ry="1.5564433"
       d="M 223.81654,231.49397 A 1.5564433,1.5564433 0 1 1 220.70366,231.49397 A 1.5564433,1.5564433 0 1 1 223.81654,231.49397 z"
       transform="translate(273.93403,244.98418)" />
    <path
       sodipodi:type="arc"
       style="opacity:1;fill:#000000;fill-opacity:1;stroke:#000000;stroke-width:0.5;stroke-miterlimit:4;stroke-dasharray:none;stroke-dashoffset:7.9;stroke-opacity:1"
       id="path5829"
       sodipodi:cx="222.2601"
       sodipodi:cy="231.49397"
       sodipodi:rx="1.5564433"
       sodipodi:ry="1.5564433"
       d="M 223.81654,231.49397 A 1.5564433,1.5564433 0 1 1 220.70366,231.49397 A 1.5564433,1.5564433 0 1 1 223.81654,231.49397 z"
       transform="translate(244.20596,235.48987)" />
    <path
       sodipodi:type="arc"
       style="opacity:1;fill:#000000;fill-opacity:1;stroke:#000000;stroke-width:0.5;stroke-miterlimit:4;stroke-dasharray:none;stroke-dashoffset:7.9;stroke-opacity:1"
       id="path5831"
       sodipodi:cx="222.2601"
       sodipodi:cy="231.49397"
       sodipodi:rx="1.5564433"
       sodipodi:ry="1.5564433"
       d="M 223.81654,231.49397 A 1.5564433,1.5564433 0 1 1 220.70366,231.49397 A 1.5564433,1.5564433 0 1 1 223.81654,231.49397 z"
       transform="translate(222.26011,223.03833)" />
    <path
       sodipodi:type="arc"
       style="opacity:1;fill:#000000;fill-opacity:1;stroke:#000000;stroke-width:0.5;stroke-miterlimit:4;stroke-dasharray:none;stroke-dashoffset:7.9;stroke-opacity:1"
       id="path5833"
       sodipodi:cx="222.2601"
       sodipodi:cy="231.49397"
       sodipodi:rx="1.5564433"
       sodipodi:ry="1.5564433"
       d="M 223.81654,231.49397 A 1.5564433,1.5564433 0 1 1 220.70366,231.49397 A 1.5564433,1.5564433 0 1 1 223.81654,231.49397 z"
       transform="translate(197.20138,207.31825)" />
    <path
       sodipodi:type="arc"
       style="opacity:1;fill:#000000;fill-opacity:1;stroke:#000000;stroke-width:0.5;stroke-miterlimit:4;stroke-dasharray:none;stroke-dashoffset:7.9;stroke-opacity:1"
       id="path5835"
       sodipodi:cx="222.2601"
       sodipodi:cy="231.49397"
       sodipodi:rx="1.5564433"
       sodipodi:ry="1.5564433"
       d="M 223.81654,231.49397 A 1.5564433,1.5564433 0 1 1 220.70366,231.49397 A 1.5564433,1.5564433 0 1 1 223.81654,231.49397 z"
       transform="translate(166.53944,194.39977)" />
    <path
       sodipodi:type="arc"
       style="opacity:1;fill:#000000;fill-opacity:1;stroke:#000000;stroke-width:0.5;stroke-miterlimit:4;stroke-dasharray:none;stroke-dashoffset:7.9;stroke-opacity:1"
       id="path5837"
       sodipodi:cx="222.2601"
       sodipodi:cy="231.49397"
       sodipodi:rx="1.5564433"
       sodipodi:ry="1.5564433"
       d="M 223.81654,231.49397 A 1.5564433,1.5564433 0 1 1 220.70366,231.49397 A 1.5564433,1.5564433 0 1 1 223.81654,231.49397 z"
       transform="translate(129.65174,192.37639)" />
    <path
       sodipodi:type="arc"
       style="opacity:1;fill:#000000;fill-opacity:1;stroke:#000000;stroke-width:0.5;stroke-miterlimit:4;stroke-dasharray:none;stroke-dashoffset:7.9;stroke-opacity:1"
       id="path5839"
       sodipodi:cx="222.2601"
       sodipodi:cy="231.49397"
       sodipodi:rx="1.5564433"
       sodipodi:ry="1.5564433"
       d="M 223.81654,231.49397 A 1.5564433,1.5564433 0 1 1 220.70366,231.49397 A 1.5564433,1.5564433 0 1 1 223.81654,231.49397 z"
       transform="translate(101.16882,199.84732)" />
    <path
       sodipodi:type="arc"
       style="opacity:1;fill:#000000;fill-opacity:1;stroke:#000000;stroke-width:0.5;stroke-miterlimit:4;stroke-dasharray:none;stroke-dashoffset:7.9;stroke-opacity:1"
       id="path5841"
       sodipodi:cx="222.2601"
       sodipodi:cy="231.49397"
       sodipodi:rx="1.5564433"
       sodipodi:ry="1.5564433"
       d="M 223.81654,231.49397 A 1.5564433,1.5564433 0 1 1 220.70366,231.49397 A 1.5564433,1.5564433 0 1 1 223.81654,231.49397 z"
       transform="translate(75.798796,209.80856)" />
    <path
       sodipodi:type="arc"
       style="opacity:1;fill:#000000;fill-opacity:1;stroke:#000000;stroke-width:0.5;stroke-miterlimit:4;stroke-dasharray:none;stroke-dashoffset:7.9;stroke-opacity:1"
       id="path5843"
       sodipodi:cx="222.2601"
       sodipodi:cy="231.49397"
       sodipodi:rx="1.5564433"
       sodipodi:ry="1.5564433"
       d="M 223.81654,231.49397 A 1.5564433,1.5564433 0 1 1 220.70366,231.49397 A 1.5564433,1.5564433 0 1 1 223.81654,231.49397 z"
       transform="translate(43.424775,217.59078)" />
    <path
       sodipodi:type="arc"
       style="opacity:1;fill:#000000;fill-opacity:1;stroke:#000000;stroke-width:0.5;stroke-miterlimit:4;stroke-dasharray:none;stroke-dashoffset:7.9;stroke-opacity:1"
       id="path5845"
       sodipodi:cx="222.2601"
       sodipodi:cy="231.49397"
       sodipodi:rx="1.5564433"
       sodipodi:ry="1.5564433"
       d="M 223.81654,231.49397 A 1.5564433,1.5564433 0 1 1 220.70366,231.49397 A 1.5564433,1.5564433 0 1 1 223.81654,231.49397 z"
       transform="translate(-4.6693239,208.87469)" />
    <path
       sodipodi:type="arc"
       style="opacity:1;fill:#000000;fill-opacity:1;stroke:#000000;stroke-width:0.5;stroke-miterlimit:4;stroke-dasharray:none;stroke-dashoffset:7.9;stroke-opacity:1"
       id="path5847"
       sodipodi:cx="222.2601"
       sodipodi:cy="231.49397"
       sodipodi:rx="1.5564433"
       sodipodi:ry="1.5564433"
       d="M 223.81654,231.49397 A 1.5564433,1.5564433 0 1 1 220.70366,231.49397 A 1.5564433,1.5564433 0 1 1 223.81654,231.49397 z"
       transform="translate(-34.553036,193.62155)" />
    <path
       sodipodi:type="arc"
       style="opacity:1;fill:#000000;fill-opacity:1;stroke:#000000;stroke-width:0.5;stroke-miterlimit:4;stroke-dasharray:none;stroke-dashoffset:7.9;stroke-opacity:1"
       id="path5849"
       sodipodi:cx="222.2601"
       sodipodi:cy="231.49397"
       sodipodi:rx="1.5564433"
       sodipodi:ry="1.5564433"
       d="M 223.81654,231.49397 A 1.5564433,1.5564433 0 1 1 220.70366,231.49397 A 1.5564433,1.5564433 0 1 1 223.81654,231.49397 z"
       transform="translate(-49.650536,181.94822)" />
    <path
       sodipodi:type="arc"
       style="opacity:1;fill:#000000;fill-opacity:1;stroke:#000000;stroke-width:0.5;stroke-miterlimit:4;stroke-dasharray:none;stroke-dashoffset:7.9;stroke-opacity:1"
       id="path5851"
       sodipodi:cx="222.2601"
       sodipodi:cy="231.49397"
       sodipodi:rx="1.5564433"
       sodipodi:ry="1.5564433"
       d="M 223.81654,231.49397 A 1.5564433,1.5564433 0 1 1 220.70366,231.49397 A 1.5564433,1.5564433 0 1 1 223.81654,231.49397 z"
       transform="translate(-63.658526,167.00637)" />
    <path
       sodipodi:type="arc"
       style="opacity:1;fill:#000000;fill-opacity:1;stroke:#000000;stroke-width:0.5;stroke-miterlimit:4;stroke-dasharray:none;stroke-dashoffset:7.9;stroke-opacity:1"
       id="path5853"
       sodipodi:cx="222.2601"
       sodipodi:cy="231.49397"
       sodipodi:rx="1.5564433"
       sodipodi:ry="1.5564433"
       d="M 223.81654,231.49397 A 1.5564433,1.5564433 0 1 1 220.70366,231.49397 A 1.5564433,1.5564433 0 1 1 223.81654,231.49397 z"
       transform="translate(-72.374609,141.4807)" />
    <path
       sodipodi:type="arc"
       style="opacity:1;fill:#000000;fill-opacity:1;stroke:#000000;stroke-width:0.5;stroke-miterlimit:4;stroke-dasharray:none;stroke-dashoffset:7.9;stroke-opacity:1"
       id="path5855"
       sodipodi:cx="222.2601"
       sodipodi:cy="231.49397"
       sodipodi:rx="1.5564433"
       sodipodi:ry="1.5564433"
       d="M 223.81654,231.49397 A 1.5564433,1.5564433 0 1 1 220.70366,231.49397 A 1.5564433,1.5564433 0 1 1 223.81654,231.49397 z"
       transform="translate(-69.573011,106.61637)" />
    <path
       sodipodi:type="arc"
       style="opacity:1;fill:#000000;fill-opacity:1;stroke:#000000;stroke-width:0.5;stroke-miterlimit:4;stroke-dasharray:none;stroke-dashoffset:7.9;stroke-opacity:1"
       id="path5857"
       sodipodi:cx="222.2601"
       sodipodi:cy="231.49397"
       sodipodi:rx="1.5564433"
       sodipodi:ry="1.5564433"
       d="M 223.81654,231.49397 A 1.5564433,1.5564433 0 1 1 220.70366,231.49397 A 1.5564433,1.5564433 0 1 1 223.81654,231.49397 z"
       transform="translate(-57.899686,78.289097)" />
    <path
       sodipodi:type="arc"
       style="opacity:1;fill:#000000;fill-opacity:1;stroke:#000000;stroke-width:0.5;stroke-miterlimit:4;stroke-dasharray:none;stroke-dashoffset:7.9;stroke-opacity:1"
       id="path5859"
       sodipodi:cx="222.2601"
       sodipodi:cy="231.49397"
       sodipodi:rx="1.5564433"
       sodipodi:ry="1.5564433"
       d="M 223.81654,231.49397 A 1.5564433,1.5564433 0 1 1 220.70366,231.49397 A 1.5564433,1.5564433 0 1 1 223.81654,231.49397 z"
       transform="translate(-39.533654,57.277112)" />
    <path
       sodipodi:type="arc"
       style="opacity:1;fill:#000000;fill-opacity:1;stroke:#000000;stroke-width:0.5;stroke-miterlimit:4;stroke-dasharray:none;stroke-dashoffset:7.9;stroke-opacity:1"
       id="path5861"
       sodipodi:cx="222.2601"
       sodipodi:cy="231.49397"
       sodipodi:rx="1.5564433"
       sodipodi:ry="1.5564433"
       d="M 223.81654,231.49397 A 1.5564433,1.5564433 0 1 1 220.70366,231.49397 A 1.5564433,1.5564433 0 1 1 223.81654,231.49397 z"
       transform="translate(-13.385407,41.245746)" />
    <path
       style="fill:none;fill-rule:evenodd;stroke:#000000;stroke-width:1px;stroke-linecap:butt;stroke-linejoin:miter;stroke-opacity:1"
       d="M 279.32542,277.52511 L 283.10795,271.12391"
       id="path5863" />
    <text
       xml:space="preserve"
       style="font-size:20px;font-style:normal;font-weight:normal;fill:#000000;fill-opacity:1;stroke:none;stroke-width:1px;stroke-linecap:butt;stroke-linejoin:miter;stroke-opacity:1;font-family:Bitstream Vera Sans"
       x="291.53864"
       y="271.02502"
       id="text5869"><tspan
         sodipodi:role="line"
         id="tspan5871"
         x="291.53864"
         y="271.02502">ɣ(0)</tspan></text>
    <path
       style="fill:none;fill-rule:evenodd;stroke:#000000;stroke-width:1px;stroke-linecap:butt;stroke-linejoin:miter;stroke-opacity:1"
       d="M 215.94776,258.86543 L 210.26897,261.32112 L 218.40346,281.12017 L 224.23574,278.51099"
       id="path5873" />
    <path
       style="fill:none;fill-rule:evenodd;stroke:#000000;stroke-width:1px;stroke-linecap:butt;stroke-linejoin:miter;stroke-opacity:1"
       d="M 265.36864,258.09802 L 271.66137,260.24675 L 262.75947,280.81321 L 257.23415,278.51099"
       id="path5875" />
    <text
       xml:space="preserve"
       style="font-size:18px;font-style:normal;font-weight:normal;fill:#000000;fill-opacity:1;stroke:none;stroke-width:1px;stroke-linecap:butt;stroke-linejoin:miter;stroke-opacity:1;font-family:Bitstream Vera Sans"
       x="111.13212"
       y="230.15819"
       id="text5877"><tspan
         sodipodi:role="line"
         id="tspan5879"
         x="111.13212"
         y="230.15819">leeres Segment</tspan></text>
    <path
       style="fill:none;fill-rule:evenodd;stroke:#000000;stroke-width:1px;stroke-linecap:butt;stroke-linejoin:miter;stroke-opacity:1"
       d="M 234.74488,235.47603 L 243.53561,262.71643"
       id="path5881" />
    <path
       style="fill:none;fill-rule:evenodd;stroke:#000000;stroke-width:1px;stroke-linecap:butt;stroke-linejoin:miter;stroke-opacity:1"
       d="M 246.79143,254.68539 L 243.64413,262.6079 L 235.28752,259.56913"
       id="path5883" />
  </g>
</svg>
