<?xml version="1.0" encoding="UTF-8" standalone="no"?>
<!-- Created with Inkscape (http://www.inkscape.org/) -->
<svg
   xmlns:dc="http://purl.org/dc/elements/1.1/"
   xmlns:cc="http://creativecommons.org/ns#"
   xmlns:rdf="http://www.w3.org/1999/02/22-rdf-syntax-ns#"
   xmlns:svg="http://www.w3.org/2000/svg"
   xmlns="http://www.w3.org/2000/svg"
   xmlns:sodipodi="http://sodipodi.sourceforge.net/DTD/sodipodi-0.dtd"
   xmlns:inkscape="http://www.inkscape.org/namespaces/inkscape"
   width="498.48126"
   height="261.80219"
   id="svg3794"
   sodipodi:version="0.32"
   inkscape:version="0.46"
   version="1.0"
   sodipodi:docname="kurveundbaelle.svg"
   inkscape:output_extension="org.inkscape.output.svg.inkscape">
  <defs
     id="defs3796">
    <pattern
       inkscape:stockid="Stripes 1:10"
       id="Strips1_10"
       patternTransform="translate(0,0) scale(10,10)"
       height="1"
       width="11"
       patternUnits="userSpaceOnUse"
       inkscape:collect="always">
      <rect
         id="rect5091"
         height="2"
         width="1"
         y="-0.5"
         x="0"
         style="fill:black;stroke:none" />
    </pattern>
    <inkscape:perspective
       sodipodi:type="inkscape:persp3d"
       inkscape:vp_x="0 : 526.18109 : 1"
       inkscape:vp_y="0 : 1000 : 0"
       inkscape:vp_z="744.09448 : 526.18109 : 1"
       inkscape:persp3d-origin="372.04724 : 350.78739 : 1"
       id="perspective3802" />
    <pattern
       patternUnits="userSpaceOnUse"
       width="77.211441"
       height="77.211441"
       patternTransform="translate(208.64357,235.43169)"
       id="pattern7452">
      <path
         transform="matrix(-2.4892461e-2,-2.4892461e-2,2.4892461e-2,-2.4892461e-2,-19.079945,71.73038)"
         d="M 589.2699,1824.0527 A 1082.6122,1082.6122 0 1 1 -1575.9545,1824.0527 A 1082.6122,1082.6122 0 1 1 589.2699,1824.0527 z"
         sodipodi:ry="1082.6122"
         sodipodi:rx="1082.6122"
         sodipodi:cy="1824.0527"
         sodipodi:cx="-493.34229"
         id="path7206"
         style="opacity:1;fill:url(#Strips1_10);fill-opacity:1;fill-rule:nonzero;stroke:#000000;stroke-width:28.40646362;stroke-miterlimit:4;stroke-dasharray:none;stroke-dashoffset:7.9;stroke-opacity:1"
         sodipodi:type="arc" />
    </pattern>
  </defs>
  <sodipodi:namedview
     id="base"
     pagecolor="#ffffff"
     bordercolor="#666666"
     borderopacity="1.0"
     inkscape:pageopacity="0.0"
     inkscape:pageshadow="2"
     inkscape:zoom="1.6511599"
     inkscape:cx="218.47305"
     inkscape:cy="112.45725"
     inkscape:document-units="px"
     inkscape:current-layer="layer1"
     showgrid="false"
     inkscape:window-width="1090"
     inkscape:window-height="704"
     inkscape:window-x="20"
     inkscape:window-y="50" />
  <metadata
     id="metadata3799">
    <rdf:RDF>
      <cc:Work
         rdf:about="">
        <dc:format>image/svg+xml</dc:format>
        <dc:type
           rdf:resource="http://purl.org/dc/dcmitype/StillImage" />
      </cc:Work>
    </rdf:RDF>
  </metadata>
  <g
     inkscape:label="Ebene 1"
     inkscape:groupmode="layer"
     id="layer1"
     transform="translate(-112.82841,-216.48241)">
    <path
       style="fill:none;fill-rule:evenodd;stroke:#000000;stroke-width:1px;stroke-linecap:butt;stroke-linejoin:miter;stroke-opacity:1"
       d="M 150.52284,368.84044 C 150.52284,368.84044 143.40069,317.48324 186.30286,286.17625 C 231.95323,252.86383 278.83739,261.50038 309.68223,296.04661 C 340.52708,330.59283 388.87369,342.51422 409.61953,313.31972 C 440.09193,270.43757 449.10093,255.33141 518.19338,255.33141 C 585.22824,255.33141 610.72791,304.68316 609.49412,358.97009 C 608.277,412.52337 574.92375,475.86123 513.25821,477.41429 C 451.71025,478.99546 427.37864,424.91814 368.90434,423.12737 C 320.7941,421.62223 301.04568,451.50462 255.39531,449.03703 C 209.74494,446.56944 143.12008,405.85425 150.52284,368.84044 z"
       id="path3808"
       sodipodi:nodetypes="cssssssssc" />
    <path
       sodipodi:type="arc"
       style="opacity:1;fill:#000000;fill-opacity:1;stroke:#000000;stroke-width:0.5;stroke-miterlimit:4;stroke-dasharray:none;stroke-dashoffset:7.9;stroke-opacity:1"
       id="path5841"
       sodipodi:cx="222.2601"
       sodipodi:cy="231.49397"
       sodipodi:rx="1.5564433"
       sodipodi:ry="1.5564433"
       d="M 223.81654,231.49397 A 1.5564433,1.5564433 0 1 1 220.70366,231.49397 A 1.5564433,1.5564433 0 1 1 223.81654,231.49397 z"
       transform="translate(63.588494,45.414974)" />
    <path
       sodipodi:type="arc"
       style="opacity:1;fill:#000000;fill-opacity:1;stroke:#000000;stroke-width:0.5;stroke-miterlimit:4;stroke-dasharray:none;stroke-dashoffset:7.9;stroke-opacity:1"
       id="path5843"
       sodipodi:cx="222.2601"
       sodipodi:cy="231.49397"
       sodipodi:rx="1.5564433"
       sodipodi:ry="1.5564433"
       d="M 223.81654,231.49397 A 1.5564433,1.5564433 0 1 1 220.70366,231.49397 A 1.5564433,1.5564433 0 1 1 223.81654,231.49397 z"
       transform="translate(-14.152486,41.855454)" />
    <rect
       style="stroke:none;fill:none"
       width="77.211441"
       height="77.211441"
       x="208.64357"
       y="235.43169"
       id="rect7455" />
    <path
       sodipodi:type="arc"
       style="opacity:1;fill:none;fill-opacity:1;fill-rule:nonzero;stroke:#000000;stroke-width:1;stroke-miterlimit:4;stroke-dasharray:none;stroke-dashoffset:7.90000000000000036;stroke-opacity:1"
       id="path7218"
       sodipodi:cx="269.20468"
       sodipodi:cy="186.40065"
       sodipodi:rx="69.950829"
       sodipodi:ry="69.950829"
       d="M 339.15551,186.40065 A 69.950829,69.950829 0 1 1 199.25385,186.40065 A 69.950829,69.950829 0 1 1 339.15551,186.40065 z"
       transform="translate(97.687539,187.41194)" />
    <path
       sodipodi:type="arc"
       style="opacity:1;fill:none;fill-opacity:1;fill-rule:nonzero;stroke:#000000;stroke-width:28.40646362000000025;stroke-miterlimit:4;stroke-dasharray:none;stroke-dashoffset:7.90000000000000036;stroke-opacity:1"
       id="path7457"
       sodipodi:cx="-493.34229"
       sodipodi:cy="1824.0527"
       sodipodi:rx="1082.6122"
       sodipodi:ry="1082.6122"
       d="M 589.2699,1824.0527 A 1082.6122,1082.6122 0 1 1 -1575.9545,1824.0527 A 1082.6122,1082.6122 0 1 1 589.2699,1824.0527 z"
       transform="matrix(-2.4892461e-2,-2.4892461e-2,2.4892461e-2,-2.4892461e-2,189.56362,307.16207)" />
    <rect
       style="fill:#000000;stroke:none"
       x="-351.2381"
       y="-83.330681"
       width="0.35203257"
       height="0.70406514"
       id="rect7459"
       transform="matrix(-0.7071068,-0.7071068,0.7071068,-0.7071068,0,0)" />
  </g>
</svg>
