<?xml version="1.0" encoding="UTF-8" standalone="no"?>
<!-- Created with Inkscape (http://www.inkscape.org/) -->
<svg
   xmlns:svg="http://www.w3.org/2000/svg"
   xmlns="http://www.w3.org/2000/svg"
   version="1.0"
   width="550.76062"
   height="357.33182"
   id="svg7461">
  <defs
     id="defs7463" />
  <g
     transform="translate(-99.68416,-96.929997)"
     id="layer1">
    <path
       d="M 607.36648,153.20933 C 607.36648,153.20933 492.1547,182.01227 423.27808,227.09515 C 354.40147,272.17802 348.13996,290.96255 298.04788,313.50399 C 247.9558,336.04542 115.21179,327.27931 115.21179,327.27931 L 100.18416,327.27931"
       id="path7471"
       style="fill:none;fill-rule:evenodd;stroke:#000000;stroke-width:1px;stroke-linecap:butt;stroke-linejoin:miter;stroke-opacity:1" />
    <path
       d="M 649.94475,317.2609 C 649.94475,317.2609 522.20994,265.91651 473.37016,298.47637 C 424.53038,331.03622 428.28729,333.54082 409.50276,362.34377 C 390.71823,391.14672 396.97974,453.76182 396.97974,453.76182"
       id="path7473"
       style="fill:none;fill-rule:evenodd;stroke:#000000;stroke-width:1px;stroke-linecap:butt;stroke-linejoin:miter;stroke-opacity:1" />
    <path
       d="M 504.67772,338.55002 A 120.22099,120.22099 0 1 1 264.23573,338.55002 A 120.22099,120.22099 0 1 1 504.67772,338.55002 z"
       transform="translate(2.5046041,-91.418048)"
       id="path7475"
       style="opacity:1;fill:none;fill-opacity:1;fill-rule:nonzero;stroke:#000000;stroke-width:1;stroke-miterlimit:4;stroke-dasharray:6, 6;stroke-dashoffset:0;stroke-opacity:1" />
    <path
       d="M 492.29999,191.06898 L 291.11525,316.22999"
       id="path7477"
       style="fill:none;fill-rule:evenodd;stroke:#000000;stroke-width:1px;stroke-linecap:butt;stroke-linejoin:miter;stroke-opacity:1" />
    <path
       d="M 285.55253,97.429997 L 494.15422,403.37914"
       id="path7479"
       style="fill:none;fill-rule:evenodd;stroke:#000000;stroke-width:1px;stroke-linecap:butt;stroke-linejoin:miter;stroke-opacity:1" />
    <text
       x="265.15591"
       y="357.02319"
       id="text7996"
       xml:space="preserve"
       style="font-size:40px;font-style:normal;font-weight:normal;fill:#000000;fill-opacity:1;stroke:none;stroke-width:1px;stroke-linecap:butt;stroke-linejoin:miter;stroke-opacity:1;font-family:Bitstream Vera Sans"><tspan
         x="265.15591"
         y="357.02319"
         id="tspan7998">p</tspan></text>
    <text
       x="494.15421"
       y="180.87068"
       id="text8000"
       xml:space="preserve"
       style="font-size:40px;font-style:normal;font-weight:normal;fill:#000000;fill-opacity:1;stroke:none;stroke-width:1px;stroke-linecap:butt;stroke-linejoin:miter;stroke-opacity:1;font-family:Bitstream Vera Sans"><tspan
         x="494.15421"
         y="180.87068"
         id="tspan8002">x</tspan></text>
    <text
       x="418.13049"
       y="283.78082"
       id="text8004"
       xml:space="preserve"
       style="font-size:40px;font-style:normal;font-weight:normal;fill:#000000;fill-opacity:1;stroke:none;stroke-width:1px;stroke-linecap:butt;stroke-linejoin:miter;stroke-opacity:1;font-family:Bitstream Vera Sans"><tspan
         x="418.13049"
         y="283.78082"
         id="tspan8006">z</tspan></text>
  </g>
</svg>
