<?xml version="1.0" encoding="UTF-8" standalone="no"?>
<!-- Created with Inkscape (http://www.inkscape.org/) -->
<svg
   xmlns:dc="http://purl.org/dc/elements/1.1/"
   xmlns:cc="http://creativecommons.org/ns#"
   xmlns:rdf="http://www.w3.org/1999/02/22-rdf-syntax-ns#"
   xmlns:svg="http://www.w3.org/2000/svg"
   xmlns="http://www.w3.org/2000/svg"
   xmlns:sodipodi="http://sodipodi.sourceforge.net/DTD/sodipodi-0.dtd"
   xmlns:inkscape="http://www.inkscape.org/namespaces/inkscape"
   width="667.9613"
   height="125.14365"
   id="svg2558"
   sodipodi:version="0.32"
   inkscape:version="0.46"
   sodipodi:docname="punktevent.svg"
   inkscape:output_extension="org.inkscape.output.svg.inkscape"
   version="1.0">
  <defs
     id="defs2560">
    <inkscape:perspective
       sodipodi:type="inkscape:persp3d"
       inkscape:vp_x="0 : 526.18109 : 1"
       inkscape:vp_y="0 : 1000 : 0"
       inkscape:vp_z="744.09448 : 526.18109 : 1"
       inkscape:persp3d-origin="372.04724 : 350.78739 : 1"
       id="perspective2566" />
  </defs>
  <sodipodi:namedview
     id="base"
     pagecolor="#ffffff"
     bordercolor="#666666"
     borderopacity="1.0"
     inkscape:pageopacity="0.0"
     inkscape:pageshadow="2"
     inkscape:zoom="0.81441844"
     inkscape:cx="333.98065"
     inkscape:cy="62.571823"
     inkscape:document-units="px"
     inkscape:current-layer="layer1"
     showgrid="false"
     inkscape:window-width="645"
     inkscape:window-height="723"
     inkscape:window-x="60"
     inkscape:window-y="82" />
  <metadata
     id="metadata2563">
    <rdf:RDF>
      <cc:Work
         rdf:about="">
        <dc:format>image/svg+xml</dc:format>
        <dc:type
           rdf:resource="http://purl.org/dc/dcmitype/StillImage" />
      </cc:Work>
    </rdf:RDF>
  </metadata>
  <g
     inkscape:label="Ebene 1"
     inkscape:groupmode="layer"
     id="layer1"
     transform="translate(-26.019337,-309.81799)">
    <path
       sodipodi:type="arc"
       style="opacity:1;fill:#ff0000;fill-opacity:0;stroke:#000000;stroke-opacity:1"
       id="path2491"
       sodipodi:cx="267.79007"
       sodipodi:cy="103.17249"
       sodipodi:rx="4.7697973"
       sodipodi:ry="6.1325965"
       d="M 272.55987,103.17249 A 4.7697973,6.1325965 0 1 1 263.02027,103.17249 A 4.7697973,6.1325965 0 1 1 272.55987,103.17249 z"
       transform="translate(-202.81769,238.47146)" />
    <path
       sodipodi:type="arc"
       style="opacity:1;fill:#ff0000;fill-opacity:0;stroke:#000000;stroke-opacity:1"
       id="path2604"
       sodipodi:cx="267.79007"
       sodipodi:cy="103.17249"
       sodipodi:rx="4.7697973"
       sodipodi:ry="6.1325965"
       d="M 272.55987,103.17249 A 4.7697973,6.1325965 0 1 1 263.02027,103.17249 A 4.7697973,6.1325965 0 1 1 272.55987,103.17249 z"
       transform="translate(-68.895042,213.27809)" />
    <path
       sodipodi:type="arc"
       style="opacity:1;fill:#ff0000;fill-opacity:0;stroke:#000000;stroke-opacity:1"
       id="path2606"
       sodipodi:cx="267.79007"
       sodipodi:cy="103.17249"
       sodipodi:rx="4.7697973"
       sodipodi:ry="6.1325965"
       d="M 272.55987,103.17249 A 4.7697973,6.1325965 0 1 1 263.02027,103.17249 A 4.7697973,6.1325965 0 1 1 272.55987,103.17249 z"
       transform="translate(23.922638,246.42726)" />
    <path
       sodipodi:type="arc"
       style="opacity:1;fill:#ff0000;fill-opacity:0;stroke:#000000;stroke-opacity:1"
       id="path2608"
       sodipodi:cx="267.79007"
       sodipodi:cy="103.17249"
       sodipodi:rx="4.7697973"
       sodipodi:ry="6.1325965"
       d="M 272.55987,103.17249 A 4.7697973,6.1325965 0 1 1 263.02027,103.17249 A 4.7697973,6.1325965 0 1 1 272.55987,103.17249 z"
       transform="translate(171.10496,217.25599)" />
    <path
       sodipodi:type="arc"
       style="opacity:1;fill:#ff0000;fill-opacity:0;stroke:#000000;stroke-opacity:1"
       id="path2610"
       sodipodi:cx="267.79007"
       sodipodi:cy="103.17249"
       sodipodi:rx="4.7697973"
       sodipodi:ry="6.1325965"
       d="M 272.55987,103.17249 A 4.7697973,6.1325965 0 1 1 263.02027,103.17249 A 4.7697973,6.1325965 0 1 1 272.55987,103.17249 z"
       transform="translate(240.05523,251.73113)" />
    <path
       sodipodi:type="arc"
       style="opacity:1;fill:#ff0000;fill-opacity:0;stroke:#000000;stroke-opacity:1"
       id="path2612"
       sodipodi:cx="267.79007"
       sodipodi:cy="103.17249"
       sodipodi:rx="4.7697973"
       sodipodi:ry="6.1325965"
       d="M 272.55987,103.17249 A 4.7697973,6.1325965 0 1 1 263.02027,103.17249 A 4.7697973,6.1325965 0 1 1 272.55987,103.17249 z"
       transform="translate(393.86739,213.27809)" />
    <path
       sodipodi:type="arc"
       style="opacity:1;fill:#ff0000;fill-opacity:0;stroke:#000000;stroke-opacity:1"
       id="path2614"
       sodipodi:cx="267.79007"
       sodipodi:cy="103.17249"
       sodipodi:rx="4.7697973"
       sodipodi:ry="6.1325965"
       d="M 272.55987,103.17249 A 4.7697973,6.1325965 0 1 1 263.02027,103.17249 A 4.7697973,6.1325965 0 1 1 272.55987,103.17249 z"
       transform="translate(-129.88952,300.7919)" />
    <path
       sodipodi:type="arc"
       style="opacity:1;fill:#ff0000;fill-opacity:0;stroke:#000000;stroke-opacity:1"
       id="path2616"
       sodipodi:cx="267.79007"
       sodipodi:cy="103.17249"
       sodipodi:rx="4.7697973"
       sodipodi:ry="6.1325965"
       d="M 272.55987,103.17249 A 4.7697973,6.1325965 0 1 1 263.02027,103.17249 A 4.7697973,6.1325965 0 1 1 272.55987,103.17249 z"
       transform="translate(96.850814,308.7477)" />
    <path
       sodipodi:type="arc"
       style="opacity:1;fill:#ff0000;fill-opacity:0;stroke:#000000;stroke-opacity:1"
       id="path2618"
       sodipodi:cx="267.79007"
       sodipodi:cy="103.17249"
       sodipodi:rx="4.7697973"
       sodipodi:ry="6.1325965"
       d="M 272.55987,103.17249 A 4.7697973,6.1325965 0 1 1 263.02027,103.17249 A 4.7697973,6.1325965 0 1 1 272.55987,103.17249 z"
       transform="translate(318.28728,308.7477)" />
    <path
       style="fill:none;fill-rule:evenodd;stroke:#000000;stroke-width:1px;stroke-linecap:butt;stroke-linejoin:miter;stroke-opacity:1"
       d="M 31.823204,388.05279 L 233.37017,388.05279"
       id="path2620" />
    <path
       style="fill:none;fill-rule:evenodd;stroke:#000000;stroke-width:1px;stroke-linecap:butt;stroke-linejoin:miter;stroke-opacity:1"
       d="M 242.65193,414.57213 L 452.1547,411.92019"
       id="path2622" />
    <path
       style="fill:none;fill-rule:evenodd;stroke:#000000;stroke-width:1px;stroke-linecap:butt;stroke-linejoin:miter;stroke-opacity:1"
       d="M 482.65193,434.46163 L 676.24309,430.48373"
       id="path2624" />
    <path
       style="fill:none;fill-rule:evenodd;stroke:#000000;stroke-width:1px;stroke-linecap:butt;stroke-linejoin:miter;stroke-opacity:1"
       d="M 26.519337,350.92572 L 39.779006,362.85942 L 51.712707,365.51135 L 70.276243,368.16329 C 70.276243,368.16329 78.232044,366.83732 83.535912,365.51135 C 88.839779,364.18539 119.33702,349.59975 119.33702,349.59975 L 136.57459,333.68815 L 149.83425,341.64395 L 173.70166,352.25169 L 190.93923,352.25169 L 221.43646,352.25169 L 240,341.64395"
       id="path2626" />
    <path
       style="fill:none;fill-rule:evenodd;stroke:#000000;stroke-width:1px;stroke-linecap:butt;stroke-linejoin:miter;stroke-opacity:1"
       d="M 255.9116,370.81522 L 271.8232,380.09699 L 289.06077,382.74892 L 299.66851,384.07489 L 306.29834,382.74892 L 318.23204,380.09699 L 327.51381,373.46715 L 340.77348,369.48925 L 350.05525,360.20749 L 356.68508,354.90362 L 367.29282,349.59975 L 371.27072,345.62185 L 389.83425,354.90362 C 389.83425,354.90362 399.11602,362.85942 404.41989,364.18539 C 409.72376,365.51135 419.00552,365.51135 419.00552,365.51135 C 419.00552,365.51135 432.26519,365.51135 437.56906,365.51135 C 442.87293,365.51135 452.1547,364.18539 452.1547,364.18539"
       id="path2628" />
    <path
       style="fill:none;fill-rule:evenodd;stroke:#000000;stroke-width:1px;stroke-linecap:butt;stroke-linejoin:miter;stroke-opacity:1"
       d="M 364.64088,410.59423 L 365.96685,348.27378 L 364.64088,349.59975"
       id="path2630" />
    <path
       style="fill:none;fill-rule:evenodd;stroke:#000000;stroke-width:1px;stroke-linecap:butt;stroke-linejoin:miter;stroke-opacity:1"
       d="M 480,394.68263 L 487.9558,399.98649 L 502.54143,406.61633 L 518.45304,405.29036 L 531.7127,401.31246 L 548.95027,394.68263 L 554.25414,389.37876 L 558.23204,405.29036 L 567.51381,417.22406 L 583.42541,425.17986 L 594.03315,423.8539 L 605.96685,421.20196 L 615.24862,406.61633 L 623.20442,389.37876 L 628.50828,365.51136 L 641.76795,372.14119 L 665.63536,378.77103 L 680.22099,374.79312 L 693.48066,365.51136"
       id="path2395" />
  </g>
</svg>
