<?xml version="1.0" encoding="UTF-8" standalone="no"?>
<!-- Created with Inkscape (http://www.inkscape.org/) -->
<svg
   xmlns:svg="http://www.w3.org/2000/svg"
   xmlns="http://www.w3.org/2000/svg"
   version="1.0"
   width="210mm"
   height="297mm"
   id="svg2">
  <defs
     id="defs4" />
  <g
     id="layer1">
    <path
       d="M 234.28571,576.02438 C 234.28571,576.02438 244.64088,559.19723 261.46803,495.77181 C 278.29519,432.3464 238.1689,405.16408 230.40253,339.14987 C 222.63615,273.13566 242.05209,256.30851 254.99605,251.13093 C 267.94002,245.95334 310.65509,309.37876 333.95422,330.0891 C 357.25335,350.79944 368.90292,349.50504 380.55249,340.44427 C 392.20205,331.38349 407.73481,238.18697 407.73481,238.18697 C 407.73481,238.18697 410.3236,231.71498 419.38437,217.47663 C 428.44515,203.23827 463.39384,199.35508 465.98264,225.243 C 468.57143,251.13093 482.80979,353.38823 449.15549,407.75287 C 415.50118,462.11751 406.44041,425.87442 372.78611,480.23906 C 339.13181,534.6037 339.13181,534.6037 339.13181,534.6037 C 339.13181,534.6037 330.07103,543.66447 343.015,526.83732 C 355.95896,510.01017 355.95896,510.01017 355.95896,510.01017 C 355.95896,510.01017 295.12234,645.92177 265.35122,625.21143 C 235.58011,604.50109 234.28571,570.84679 234.28571,576.02438 z"
       id="path2383"
       style="fill:none;fill-rule:evenodd;stroke:#000000;stroke-width:1px;stroke-linecap:butt;stroke-linejoin:miter;stroke-opacity:1" />
    <path
       d="M 271.8232,328.7947 L 333.95422,420.69683 L 396.08524,403.86968 L 431.03394,346.91625 L 438.80032,248.54214"
       id="path2385"
       style="fill:none;fill-rule:evenodd;stroke:#000000;stroke-width:1px;stroke-linecap:butt;stroke-linejoin:miter;stroke-opacity:1" />
    <path
       d="M 333.93629,420.08688 L 272.9124,587.90257"
       id="path2391"
       style="fill:none;fill-rule:evenodd;stroke:#000000;stroke-width:1px;stroke-linecap:butt;stroke-linejoin:miter;stroke-opacity:1" />
    <path
       d="M 363.60068,304.81953 L 340.71672,212.43614"
       id="path2393"
       style="fill:none;fill-rule:evenodd;stroke:#000000;stroke-width:1px;stroke-linecap:butt;stroke-linejoin:miter;stroke-opacity:1" />
    <path
       d="M 433.94766,550.6102 L 505.1422,605.70121"
       id="path2395"
       style="fill:none;fill-rule:evenodd;stroke:#000000;stroke-width:1px;stroke-linecap:butt;stroke-linejoin:miter;stroke-opacity:1" />
    <path
       d="M 178.8339,460.76947 L 120.35267,461.61702"
       id="path2397"
       style="fill:none;fill-rule:evenodd;stroke:#000000;stroke-width:1px;stroke-linecap:butt;stroke-linejoin:miter;stroke-opacity:1" />
    <path
       d="M 519.55062,331.94125 L 533.95904,318.38039"
       id="path2399"
       style="fill:none;fill-rule:evenodd;stroke:#000000;stroke-width:1px;stroke-linecap:butt;stroke-linejoin:miter;stroke-opacity:1" />
    <path
       d="M 518.70306,317.53283 L 532.26393,332.78881"
       id="path2401"
       style="fill:none;fill-rule:evenodd;stroke:#000000;stroke-width:1px;stroke-linecap:butt;stroke-linejoin:miter;stroke-opacity:1" />
    <path
       d="M 159.34016,264.9845 A 4.2377701,4.2377701 0 1 1 150.86462,264.9845 A 4.2377701,4.2377701 0 1 1 159.34016,264.9845 z"
       transform="translate(117.81001,-3.3902245)"
       id="path3175"
       style="opacity:1;fill:#000000;fill-opacity:1;fill-rule:nonzero;stroke:#000000;stroke-width:1;stroke-miterlimit:4;stroke-dasharray:none;stroke-dashoffset:0;stroke-opacity:1" />
    <path
       d="M 159.34016,264.9845 A 4.2377701,4.2377701 0 1 1 150.86462,264.9845 A 4.2377701,4.2377701 0 1 1 159.34016,264.9845 z"
       transform="translate(144.93174,27.969275)"
       id="path3177"
       style="opacity:1;fill:#000000;fill-opacity:1;fill-rule:nonzero;stroke:#000000;stroke-width:1;stroke-miterlimit:4;stroke-dasharray:none;stroke-dashoffset:0;stroke-opacity:1" />
    <path
       d="M 159.34016,264.9845 A 4.2377701,4.2377701 0 1 1 150.86462,264.9845 A 4.2377701,4.2377701 0 1 1 159.34016,264.9845 z"
       transform="translate(180.52901,65.261652)"
       id="path3179"
       style="opacity:1;fill:#000000;fill-opacity:1;fill-rule:nonzero;stroke:#000000;stroke-width:1;stroke-miterlimit:4;stroke-dasharray:none;stroke-dashoffset:0;stroke-opacity:1" />
    <path
       d="M 159.34016,264.9845 A 4.2377701,4.2377701 0 1 1 150.86462,264.9845 A 4.2377701,4.2377701 0 1 1 159.34016,264.9845 z"
       transform="translate(227.14448,72.042084)"
       id="path3181"
       style="opacity:1;fill:#000000;fill-opacity:1;fill-rule:nonzero;stroke:#000000;stroke-width:1;stroke-miterlimit:4;stroke-dasharray:none;stroke-dashoffset:0;stroke-opacity:1" />
    <path
       d="M 159.34016,264.9845 A 4.2377701,4.2377701 0 1 1 150.86462,264.9845 A 4.2377701,4.2377701 0 1 1 159.34016,264.9845 z"
       transform="translate(242.40045,25.426613)"
       id="path3183"
       style="opacity:1;fill:#000000;fill-opacity:1;fill-rule:nonzero;stroke:#000000;stroke-width:1;stroke-miterlimit:4;stroke-dasharray:none;stroke-dashoffset:0;stroke-opacity:1" />
    <path
       d="M 159.34016,264.9845 A 4.2377701,4.2377701 0 1 1 150.86462,264.9845 A 4.2377701,4.2377701 0 1 1 159.34016,264.9845 z"
       transform="translate(254.26621,-27.121737)"
       id="path3185"
       style="opacity:1;fill:#000000;fill-opacity:1;fill-rule:nonzero;stroke:#000000;stroke-width:1;stroke-miterlimit:4;stroke-dasharray:none;stroke-dashoffset:0;stroke-opacity:1" />
    <path
       d="M 159.34016,264.9845 A 4.2377701,4.2377701 0 1 1 150.86462,264.9845 A 4.2377701,4.2377701 0 1 1 159.34016,264.9845 z"
       transform="translate(291.55859,-58.481236)"
       id="path3187"
       style="opacity:1;fill:#000000;fill-opacity:1;fill-rule:nonzero;stroke:#000000;stroke-width:1;stroke-miterlimit:4;stroke-dasharray:none;stroke-dashoffset:0;stroke-opacity:1" />
    <path
       d="M 159.34016,264.9845 A 4.2377701,4.2377701 0 1 1 150.86462,264.9845 A 4.2377701,4.2377701 0 1 1 159.34016,264.9845 z"
       transform="translate(314.44255,-16.103535)"
       id="path3189"
       style="opacity:1;fill:#000000;fill-opacity:1;fill-rule:nonzero;stroke:#000000;stroke-width:1;stroke-miterlimit:4;stroke-dasharray:none;stroke-dashoffset:0;stroke-opacity:1" />
    <path
       d="M 159.34016,264.9845 A 4.2377701,4.2377701 0 1 1 150.86462,264.9845 A 4.2377701,4.2377701 0 1 1 159.34016,264.9845 z"
       transform="translate(316.98521,50.853233)"
       id="path3191"
       style="opacity:1;fill:#000000;fill-opacity:1;fill-rule:nonzero;stroke:#000000;stroke-width:1;stroke-miterlimit:4;stroke-dasharray:none;stroke-dashoffset:0;stroke-opacity:1" />
    <path
       d="M 159.34016,264.9845 A 4.2377701,4.2377701 0 1 1 150.86462,264.9845 A 4.2377701,4.2377701 0 1 1 159.34016,264.9845 z"
       transform="translate(306.81456,119.50511)"
       id="path3193"
       style="opacity:1;fill:#000000;fill-opacity:1;fill-rule:nonzero;stroke:#000000;stroke-width:1;stroke-miterlimit:4;stroke-dasharray:none;stroke-dashoffset:0;stroke-opacity:1" />
    <path
       d="M 159.34016,264.9845 A 4.2377701,4.2377701 0 1 1 150.86462,264.9845 A 4.2377701,4.2377701 0 1 1 159.34016,264.9845 z"
       transform="translate(272.06484,172.05346)"
       id="path3195"
       style="opacity:1;fill:#000000;fill-opacity:1;fill-rule:nonzero;stroke:#000000;stroke-width:1;stroke-miterlimit:4;stroke-dasharray:none;stroke-dashoffset:0;stroke-opacity:1" />
    <path
       d="M 159.34016,264.9845 A 4.2377701,4.2377701 0 1 1 150.86462,264.9845 A 4.2377701,4.2377701 0 1 1 159.34016,264.9845 z"
       transform="translate(216.97383,216.12627)"
       id="path3197"
       style="opacity:1;fill:#000000;fill-opacity:1;fill-rule:nonzero;stroke:#000000;stroke-width:1;stroke-miterlimit:4;stroke-dasharray:none;stroke-dashoffset:0;stroke-opacity:1" />
    <path
       d="M 159.34016,264.9845 A 4.2377701,4.2377701 0 1 1 150.86462,264.9845 A 4.2377701,4.2377701 0 1 1 159.34016,264.9845 z"
       transform="translate(185.61433,277.15016)"
       id="path3199"
       style="opacity:1;fill:#000000;fill-opacity:1;fill-rule:nonzero;stroke:#000000;stroke-width:1;stroke-miterlimit:4;stroke-dasharray:none;stroke-dashoffset:0;stroke-opacity:1" />
    <path
       d="M 159.34016,264.9845 A 4.2377701,4.2377701 0 1 1 150.86462,264.9845 A 4.2377701,4.2377701 0 1 1 159.34016,264.9845 z"
       transform="translate(144.08419,344.10693)"
       id="path3201"
       style="opacity:1;fill:#000000;fill-opacity:1;fill-rule:nonzero;stroke:#000000;stroke-width:1;stroke-miterlimit:4;stroke-dasharray:none;stroke-dashoffset:0;stroke-opacity:1" />
    <path
       d="M 159.34016,264.9845 A 4.2377701,4.2377701 0 1 1 150.86462,264.9845 A 4.2377701,4.2377701 0 1 1 159.34016,264.9845 z"
       transform="translate(113.57224,361.05801)"
       id="path3203"
       style="opacity:1;fill:#000000;fill-opacity:1;fill-rule:nonzero;stroke:#000000;stroke-width:1;stroke-miterlimit:4;stroke-dasharray:none;stroke-dashoffset:0;stroke-opacity:1" />
    <path
       d="M 159.34016,264.9845 A 4.2377701,4.2377701 0 1 1 150.86462,264.9845 A 4.2377701,4.2377701 0 1 1 159.34016,264.9845 z"
       transform="translate(88.14562,335.63139)"
       id="path3205"
       style="opacity:1;fill:#000000;fill-opacity:1;fill-rule:nonzero;stroke:#000000;stroke-width:1;stroke-miterlimit:4;stroke-dasharray:none;stroke-dashoffset:0;stroke-opacity:1" />
    <path
       d="M 159.34016,264.9845 A 4.2377701,4.2377701 0 1 1 150.86462,264.9845 A 4.2377701,4.2377701 0 1 1 159.34016,264.9845 z"
       transform="translate(91.535836,284.77815)"
       id="path3207"
       style="opacity:1;fill:#000000;fill-opacity:1;fill-rule:nonzero;stroke:#000000;stroke-width:1;stroke-miterlimit:4;stroke-dasharray:none;stroke-dashoffset:0;stroke-opacity:1" />
    <path
       d="M 159.34016,264.9845 A 4.2377701,4.2377701 0 1 1 150.86462,264.9845 A 4.2377701,4.2377701 0 1 1 159.34016,264.9845 z"
       transform="translate(107.63936,227.14447)"
       id="path3209"
       style="opacity:1;fill:#000000;fill-opacity:1;fill-rule:nonzero;stroke:#000000;stroke-width:1;stroke-miterlimit:4;stroke-dasharray:none;stroke-dashoffset:0;stroke-opacity:1" />
    <path
       d="M 159.34016,264.9845 A 4.2377701,4.2377701 0 1 1 150.86462,264.9845 A 4.2377701,4.2377701 0 1 1 159.34016,264.9845 z"
       transform="translate(110.18202,194.08986)"
       id="path3211"
       style="opacity:1;fill:#000000;fill-opacity:1;fill-rule:nonzero;stroke:#000000;stroke-width:1;stroke-miterlimit:4;stroke-dasharray:none;stroke-dashoffset:0;stroke-opacity:1" />
    <path
       d="M 159.34016,264.9845 A 4.2377701,4.2377701 0 1 1 150.86462,264.9845 A 4.2377701,4.2377701 0 1 1 159.34016,264.9845 z"
       transform="translate(99.163823,150.01705)"
       id="path3213"
       style="opacity:1;fill:#000000;fill-opacity:1;fill-rule:nonzero;stroke:#000000;stroke-width:1;stroke-miterlimit:4;stroke-dasharray:none;stroke-dashoffset:0;stroke-opacity:1" />
    <path
       d="M 159.34016,264.9845 A 4.2377701,4.2377701 0 1 1 150.86462,264.9845 A 4.2377701,4.2377701 0 1 1 159.34016,264.9845 z"
       transform="translate(77.974972,92.383381)"
       id="path3215"
       style="opacity:1;fill:#000000;fill-opacity:1;fill-rule:nonzero;stroke:#000000;stroke-width:1;stroke-miterlimit:4;stroke-dasharray:none;stroke-dashoffset:0;stroke-opacity:1" />
    <path
       d="M 159.34016,264.9845 A 4.2377701,4.2377701 0 1 1 150.86462,264.9845 A 4.2377701,4.2377701 0 1 1 159.34016,264.9845 z"
       transform="translate(74.584756,26.274167)"
       id="path3217"
       style="opacity:1;fill:#000000;fill-opacity:1;fill-rule:nonzero;stroke:#000000;stroke-width:1;stroke-miterlimit:4;stroke-dasharray:none;stroke-dashoffset:0;stroke-opacity:1" />
    <path
       d="M 266.97952,337.87413 L 281.38794,324.31327"
       id="path3221"
       style="fill:none;fill-rule:evenodd;stroke:#000000;stroke-width:1px;stroke-linecap:butt;stroke-linejoin:miter;stroke-opacity:1" />
    <path
       d="M 266.13196,323.46571 L 279.69283,338.72169"
       id="path3223"
       style="fill:none;fill-rule:evenodd;stroke:#000000;stroke-width:1px;stroke-linecap:butt;stroke-linejoin:miter;stroke-opacity:1" />
    <path
       d="M 289.86348,371.77629 L 304.2719,358.21543"
       id="path3225"
       style="fill:none;fill-rule:evenodd;stroke:#000000;stroke-width:1px;stroke-linecap:butt;stroke-linejoin:miter;stroke-opacity:1" />
    <path
       d="M 289.01592,357.36787 L 302.57679,372.62385"
       id="path3227"
       style="fill:none;fill-rule:evenodd;stroke:#000000;stroke-width:1px;stroke-linecap:butt;stroke-linejoin:miter;stroke-opacity:1" />
    <path
       d="M 314.44255,409.91623 L 328.85097,396.35537"
       id="path3229"
       style="fill:none;fill-rule:evenodd;stroke:#000000;stroke-width:1px;stroke-linecap:butt;stroke-linejoin:miter;stroke-opacity:1" />
    <path
       d="M 313.59499,395.50781 L 327.15586,410.76379"
       id="path3231"
       style="fill:none;fill-rule:evenodd;stroke:#000000;stroke-width:1px;stroke-linecap:butt;stroke-linejoin:miter;stroke-opacity:1" />
    <path
       d="M 355.12514,420.08687 L 369.53356,406.52601"
       id="path3233"
       style="fill:none;fill-rule:evenodd;stroke:#000000;stroke-width:1px;stroke-linecap:butt;stroke-linejoin:miter;stroke-opacity:1" />
    <path
       d="M 354.27758,405.67845 L 367.83845,420.93443"
       id="path3235"
       style="fill:none;fill-rule:evenodd;stroke:#000000;stroke-width:1px;stroke-linecap:butt;stroke-linejoin:miter;stroke-opacity:1" />
    <path
       d="M 390.72241,409.91623 L 405.13083,396.35537"
       id="path3237"
       style="fill:none;fill-rule:evenodd;stroke:#000000;stroke-width:1px;stroke-linecap:butt;stroke-linejoin:miter;stroke-opacity:1" />
    <path
       d="M 389.87485,395.50781 L 403.43572,410.76379"
       id="path3239"
       style="fill:none;fill-rule:evenodd;stroke:#000000;stroke-width:1px;stroke-linecap:butt;stroke-linejoin:miter;stroke-opacity:1" />
    <path
       d="M 411.06371,376.01406 L 425.47213,362.4532"
       id="path3241"
       style="fill:none;fill-rule:evenodd;stroke:#000000;stroke-width:1px;stroke-linecap:butt;stroke-linejoin:miter;stroke-opacity:1" />
    <path
       d="M 410.21615,361.60564 L 423.77702,376.86162"
       id="path3243"
       style="fill:none;fill-rule:evenodd;stroke:#000000;stroke-width:1px;stroke-linecap:butt;stroke-linejoin:miter;stroke-opacity:1" />
    <path
       d="M 428.01479,341.26435 L 442.42321,327.70349"
       id="path3245"
       style="fill:none;fill-rule:evenodd;stroke:#000000;stroke-width:1px;stroke-linecap:butt;stroke-linejoin:miter;stroke-opacity:1" />
    <path
       d="M 427.16723,326.85593 L 440.7281,342.11191"
       id="path3247"
       style="fill:none;fill-rule:evenodd;stroke:#000000;stroke-width:1px;stroke-linecap:butt;stroke-linejoin:miter;stroke-opacity:1" />
    <path
       d="M 433.10011,255.66139 L 447.50853,242.10053"
       id="path3249"
       style="fill:none;fill-rule:evenodd;stroke:#000000;stroke-width:1px;stroke-linecap:butt;stroke-linejoin:miter;stroke-opacity:1" />
    <path
       d="M 432.25255,241.25297 L 445.81342,256.50895"
       id="path3251"
       style="fill:none;fill-rule:evenodd;stroke:#000000;stroke-width:1px;stroke-linecap:butt;stroke-linejoin:miter;stroke-opacity:1" />
    <path
       d="M 311.05233,468.39745 L 325.46075,454.83659"
       id="path3253"
       style="fill:none;fill-rule:evenodd;stroke:#000000;stroke-width:1px;stroke-linecap:butt;stroke-linejoin:miter;stroke-opacity:1" />
    <path
       d="M 310.20477,453.98903 L 323.76564,469.24501"
       id="path3255"
       style="fill:none;fill-rule:evenodd;stroke:#000000;stroke-width:1px;stroke-linecap:butt;stroke-linejoin:miter;stroke-opacity:1" />
    <path
       d="M 294.9488,517.55559 L 309.35722,503.99473"
       id="path3257"
       style="fill:none;fill-rule:evenodd;stroke:#000000;stroke-width:1px;stroke-linecap:butt;stroke-linejoin:miter;stroke-opacity:1" />
    <path
       d="M 294.10124,503.14717 L 307.66211,518.40315"
       id="path3259"
       style="fill:none;fill-rule:evenodd;stroke:#000000;stroke-width:1px;stroke-linecap:butt;stroke-linejoin:miter;stroke-opacity:1" />
    <path
       d="M 283.08305,552.3053 L 297.49147,538.74444"
       id="path3261"
       style="fill:none;fill-rule:evenodd;stroke:#000000;stroke-width:1px;stroke-linecap:butt;stroke-linejoin:miter;stroke-opacity:1" />
    <path
       d="M 282.23549,537.89688 L 295.79636,553.15286"
       id="path3263"
       style="fill:none;fill-rule:evenodd;stroke:#000000;stroke-width:1px;stroke-linecap:butt;stroke-linejoin:miter;stroke-opacity:1" />
    <path
       d="M 266.13197,593.83545 L 280.54039,580.27459"
       id="path3265"
       style="fill:none;fill-rule:evenodd;stroke:#000000;stroke-width:1px;stroke-linecap:butt;stroke-linejoin:miter;stroke-opacity:1" />
    <path
       d="M 265.28441,579.42703 L 278.84528,594.68301"
       id="path3267"
       style="fill:none;fill-rule:evenodd;stroke:#000000;stroke-width:1px;stroke-linecap:butt;stroke-linejoin:miter;stroke-opacity:1" />
    <path
       d="M 426.31968,554.84796 L 440.7281,541.2871"
       id="path3269"
       style="fill:none;fill-rule:evenodd;stroke:#000000;stroke-width:1px;stroke-linecap:butt;stroke-linejoin:miter;stroke-opacity:1" />
    <path
       d="M 425.47212,540.43954 L 439.03299,555.69552"
       id="path3271"
       style="fill:none;fill-rule:evenodd;stroke:#000000;stroke-width:1px;stroke-linecap:butt;stroke-linejoin:miter;stroke-opacity:1" />
    <path
       d="M 455.13652,581.12214 L 469.54494,567.56128"
       id="path3273"
       style="fill:none;fill-rule:evenodd;stroke:#000000;stroke-width:1px;stroke-linecap:butt;stroke-linejoin:miter;stroke-opacity:1" />
    <path
       d="M 454.28896,566.71372 L 467.84983,581.9697"
       id="path3275"
       style="fill:none;fill-rule:evenodd;stroke:#000000;stroke-width:1px;stroke-linecap:butt;stroke-linejoin:miter;stroke-opacity:1" />
    <path
       d="M 483.1058,601.46344 L 497.51422,587.90258"
       id="path3277"
       style="fill:none;fill-rule:evenodd;stroke:#000000;stroke-width:1px;stroke-linecap:butt;stroke-linejoin:miter;stroke-opacity:1" />
    <path
       d="M 482.25824,587.05502 L 495.81911,602.311"
       id="path3279"
       style="fill:none;fill-rule:evenodd;stroke:#000000;stroke-width:1px;stroke-linecap:butt;stroke-linejoin:miter;stroke-opacity:1" />
    <path
       d="M 173.74858,468.39745 L 188.157,454.83659"
       id="path3281"
       style="fill:none;fill-rule:evenodd;stroke:#000000;stroke-width:1px;stroke-linecap:butt;stroke-linejoin:miter;stroke-opacity:1" />
    <path
       d="M 172.90102,453.98903 L 186.46189,469.24501"
       id="path3283"
       style="fill:none;fill-rule:evenodd;stroke:#000000;stroke-width:1px;stroke-linecap:butt;stroke-linejoin:miter;stroke-opacity:1" />
    <path
       d="M 131.37088,468.39745 L 145.7793,454.83659"
       id="path3285"
       style="fill:none;fill-rule:evenodd;stroke:#000000;stroke-width:1px;stroke-linecap:butt;stroke-linejoin:miter;stroke-opacity:1" />
    <path
       d="M 130.52332,453.98903 L 144.08419,469.24501"
       id="path3287"
       style="fill:none;fill-rule:evenodd;stroke:#000000;stroke-width:1px;stroke-linecap:butt;stroke-linejoin:miter;stroke-opacity:1" />
    <path
       d="M 355.12514,313.29507 L 369.53356,299.73421"
       id="path3289"
       style="fill:none;fill-rule:evenodd;stroke:#000000;stroke-width:1px;stroke-linecap:butt;stroke-linejoin:miter;stroke-opacity:1" />
    <path
       d="M 354.27758,298.88665 L 367.83845,314.14263"
       id="path3291"
       style="fill:none;fill-rule:evenodd;stroke:#000000;stroke-width:1px;stroke-linecap:butt;stroke-linejoin:miter;stroke-opacity:1" />
    <path
       d="M 350.03982,276.00269 L 364.44824,262.44183"
       id="path3293"
       style="fill:none;fill-rule:evenodd;stroke:#000000;stroke-width:1px;stroke-linecap:butt;stroke-linejoin:miter;stroke-opacity:1" />
    <path
       d="M 349.19226,261.59427 L 362.75313,276.85025"
       id="path3295"
       style="fill:none;fill-rule:evenodd;stroke:#000000;stroke-width:1px;stroke-linecap:butt;stroke-linejoin:miter;stroke-opacity:1" />
    <path
       d="M 338.17406,237.0152 L 352.58248,223.45434"
       id="path3297"
       style="fill:none;fill-rule:evenodd;stroke:#000000;stroke-width:1px;stroke-linecap:butt;stroke-linejoin:miter;stroke-opacity:1" />
    <path
       d="M 337.3265,222.60678 L 350.88737,237.86276"
       id="path3299"
       style="fill:none;fill-rule:evenodd;stroke:#000000;stroke-width:1px;stroke-linecap:butt;stroke-linejoin:miter;stroke-opacity:1" />
    <text
       x="543.2821"
       y="333.63635"
       id="text3301"
       xml:space="preserve"
       style="font-size:24px;font-style:normal;font-weight:normal;fill:#000000;fill-opacity:1;stroke:none;stroke-width:1px;stroke-linecap:butt;stroke-linejoin:miter;stroke-opacity:1;font-family:Bitstream Vera Sans"><tspan
         x="543.2821"
         y="333.63635"
         id="tspan3303">Voronoi-Knoten des Punkt-Samplings p</tspan><tspan
         x="543.2821"
         y="363.63635"
         id="tspan3305" /></text>
    <path
       d="M 616.17179,481.95831 A 45.767918,45.767918 0 1 1 524.63595,481.95831 A 45.767918,45.767918 0 1 1 616.17179,481.95831 z"
       transform="matrix(0.979732,0,0,1.0277401,-138.53445,-132.45091)"
       id="path3327"
       style="opacity:1;fill:none;fill-opacity:1;fill-rule:nonzero;stroke:#000000;stroke-width:1;stroke-miterlimit:4;stroke-dasharray:none;stroke-dashoffset:0;stroke-opacity:1" />
  </g>
</svg>
