<?xml version="1.0" encoding="UTF-8" standalone="no"?>
<!-- Created with Inkscape (http://www.inkscape.org/) -->
<svg
   xmlns:dc="http://purl.org/dc/elements/1.1/"
   xmlns:cc="http://creativecommons.org/ns#"
   xmlns:rdf="http://www.w3.org/1999/02/22-rdf-syntax-ns#"
   xmlns:svg="http://www.w3.org/2000/svg"
   xmlns="http://www.w3.org/2000/svg"
   xmlns:sodipodi="http://sodipodi.sourceforge.net/DTD/sodipodi-0.dtd"
   xmlns:inkscape="http://www.inkscape.org/namespaces/inkscape"
   width="295.09665"
   height="194.55148"
   id="svg5905"
   sodipodi:version="0.32"
   inkscape:version="0.46"
   version="1.0"
   sodipodi:docname="skelet.svg"
   inkscape:output_extension="org.inkscape.output.svg.inkscape">
  <defs
     id="defs5907">
    <inkscape:perspective
       sodipodi:type="inkscape:persp3d"
       inkscape:vp_x="0 : 526.18109 : 1"
       inkscape:vp_y="0 : 1000 : 0"
       inkscape:vp_z="744.09448 : 526.18109 : 1"
       inkscape:persp3d-origin="372.04724 : 350.78739 : 1"
       id="perspective5913" />
  </defs>
  <sodipodi:namedview
     id="base"
     pagecolor="#ffffff"
     bordercolor="#666666"
     borderopacity="1.0"
     inkscape:pageopacity="0.0"
     inkscape:pageshadow="2"
     inkscape:zoom="1.6941827"
     inkscape:cx="382.97023"
     inkscape:cy="657.49504"
     inkscape:document-units="px"
     inkscape:current-layer="layer1"
     showgrid="false"
     inkscape:window-width="1146"
     inkscape:window-height="701"
     inkscape:window-x="40"
     inkscape:window-y="70" />
  <metadata
     id="metadata5910">
    <rdf:RDF>
      <cc:Work
         rdf:about="">
        <dc:format>image/svg+xml</dc:format>
        <dc:type
           rdf:resource="http://purl.org/dc/dcmitype/StillImage" />
      </cc:Work>
    </rdf:RDF>
  </metadata>
  <g
     inkscape:label="Ebene 1"
     inkscape:groupmode="layer"
     id="layer1"
     transform="translate(-239.63243,-296.41888)">
    <path
       sodipodi:type="arc"
       style="opacity:1;fill:none;fill-opacity:1;stroke:#000000;stroke-width:0.5;stroke-miterlimit:4;stroke-dasharray:none;stroke-dashoffset:7.9;stroke-opacity:1"
       id="path6442"
       sodipodi:cx="365.50513"
       sodipodi:cy="380.45346"
       sodipodi:rx="69.667191"
       sodipodi:ry="69.667191"
       d="M 435.17232,380.45346 A 69.667191,69.667191 0 1 1 295.83794,380.45346 A 69.667191,69.667191 0 1 1 435.17232,380.45346 z" />
    <path
       sodipodi:type="arc"
       style="opacity:1;fill:none;fill-opacity:1;stroke:#000000;stroke-width:0.5;stroke-miterlimit:4;stroke-dasharray:none;stroke-dashoffset:7.9;stroke-opacity:1"
       id="path6444"
       sodipodi:cx="290.55511"
       sodipodi:cy="372.19907"
       sodipodi:rx="50.186794"
       sodipodi:ry="50.186794"
       d="M 340.74191,372.19907 A 50.186794,50.186794 0 1 1 240.36832,372.19907 A 50.186794,50.186794 0 1 1 340.74191,372.19907 z" />
    <path
       sodipodi:type="arc"
       style="opacity:1;fill:none;fill-opacity:1;stroke:#000000;stroke-width:0.5;stroke-miterlimit:4;stroke-dasharray:none;stroke-dashoffset:7.9;stroke-opacity:1"
       id="path6446"
       sodipodi:cx="329.51593"
       sodipodi:cy="506.25064"
       sodipodi:rx="50.847145"
       sodipodi:ry="50.847145"
       d="M 380.36308,506.25064 A 50.847145,50.847145 0 1 1 278.66879,506.25064 A 50.847145,50.847145 0 1 1 380.36308,506.25064 z"
       transform="translate(-19.150224,-66.695606)" />
    <path
       sodipodi:type="arc"
       style="opacity:1;fill:none;fill-opacity:1;stroke:#000000;stroke-width:0.5;stroke-miterlimit:4;stroke-dasharray:none;stroke-dashoffset:7.9;stroke-opacity:1"
       id="path6448"
       sodipodi:cx="511.44305"
       sodipodi:cy="408.18829"
       sodipodi:rx="59.101551"
       sodipodi:ry="59.101551"
       d="M 570.54461,408.18829 A 59.101551,59.101551 0 1 1 452.3415,408.18829 A 59.101551,59.101551 0 1 1 570.54461,408.18829 z"
       transform="translate(-89.147593,-43.583268)" />
    <path
       sodipodi:type="arc"
       style="opacity:1;fill:none;fill-opacity:1;stroke:#000000;stroke-width:0.5;stroke-miterlimit:4;stroke-dasharray:none;stroke-dashoffset:7.9;stroke-opacity:1"
       id="path6450"
       sodipodi:cx="228.48198"
       sodipodi:cy="338.52109"
       sodipodi:rx="59.431728"
       sodipodi:ry="59.431728"
       d="M 287.91371,338.52109 A 59.431728,59.431728 0 1 1 169.05025,338.52109 A 59.431728,59.431728 0 1 1 287.91371,338.52109 z"
       transform="translate(246.3115,17.829519)" />
    <path
       style="fill:none;fill-rule:evenodd;stroke:#000000;stroke-width:1px;stroke-linecap:butt;stroke-linejoin:miter;stroke-opacity:1"
       d="M 278.73886,323.26289 L 353.28861,311.44663 L 412.05998,306.16381 L 460.92607,298.23958 L 483.37806,296.91888 C 483.37806,296.91888 498.41501,299.72637 512.43357,309.46558 C 512.43357,309.46558 526.42643,322.90881 530.26309,333.23827 C 530.26309,333.23827 534.37276,346.16871 534.2252,356.35061 C 534.2252,356.35061 533.81198,374.36094 528.94238,381.444 C 528.94238,381.444 522.81839,393.4337 514.99751,400.51676 C 514.99751,400.51676 509.60398,404.75926 503.84899,407.8581 C 499.81292,410.03137 492.75205,413.49878 482.71771,415.12198 C 474.55368,416.44263 448.90313,417.07356 433.55649,423.27124 C 415.19663,430.6858 397.2371,443.08182 397.2371,443.08182 L 337.44015,483.13829 C 337.44015,483.13829 328.59153,486.83624 322.25204,488.42111 C 315.16898,490.19188 305.74323,490.40217 305.74323,490.40217 C 305.74323,490.40217 299.40895,491.2322 290.25999,487.10041 C 282.53323,483.6109 280.31409,480.44153 275.59204,476.75243 C 272.1559,472.37365 269.21971,470.49109 264.51361,461.49422 C 258.90618,450.5745 241.54883,391.7882 240.36832,378.80259 C 239.29954,367.04597 242.20919,359.58228 242.20919,359.58228 C 242.20919,359.58228 245.03141,348.90591 250.93396,341.82285 C 256.38371,335.28315 253.89639,336.65434 262.45509,330.45666 C 271.42771,323.95925 278.73886,323.26289 278.73886,323.26289 z"
       id="path6452"
       sodipodi:nodetypes="ccccccccccccccccccccccccc" />
    <path
       style="fill:none;fill-rule:evenodd;stroke:#000000;stroke-width:1px;stroke-linecap:butt;stroke-linejoin:miter;stroke-opacity:1"
       d="M 479.41594,353.04884 L 363.85425,380.1233 L 288.57406,370.21801"
       id="path6454" />
    <path
       style="fill:none;fill-rule:evenodd;stroke:#000000;stroke-width:1px;stroke-linecap:butt;stroke-linejoin:miter;stroke-opacity:1"
       d="M 311.6864,442.85679 L 363.85425,380.78365"
       id="path6456" />
  </g>
</svg>
