<?xml version="1.0" encoding="UTF-8" standalone="no"?>
<!-- Created with Inkscape (http://www.inkscape.org/) -->
<svg
   xmlns:dc="http://purl.org/dc/elements/1.1/"
   xmlns:cc="http://creativecommons.org/ns#"
   xmlns:rdf="http://www.w3.org/1999/02/22-rdf-syntax-ns#"
   xmlns:svg="http://www.w3.org/2000/svg"
   xmlns="http://www.w3.org/2000/svg"
   xmlns:sodipodi="http://sodipodi.sourceforge.net/DTD/sodipodi-0.dtd"
   xmlns:inkscape="http://www.inkscape.org/namespaces/inkscape"
   width="699.77911"
   height="541.51898"
   id="svg2463"
   sodipodi:version="0.32"
   inkscape:version="0.46"
   sodipodi:docname="sweepline.svg"
   inkscape:output_extension="org.inkscape.output.svg.inkscape"
   version="1.0">
  <defs
     id="defs2465">
    <inkscape:perspective
       sodipodi:type="inkscape:persp3d"
       inkscape:vp_x="0 : 526.18109 : 1"
       inkscape:vp_y="0 : 1000 : 0"
       inkscape:vp_z="744.09448 : 526.18109 : 1"
       inkscape:persp3d-origin="372.04724 : 350.78739 : 1"
       id="perspective2471" />
  </defs>
  <sodipodi:namedview
     id="base"
     pagecolor="#ffffff"
     bordercolor="#666666"
     borderopacity="1.0"
     inkscape:pageopacity="0.0"
     inkscape:pageshadow="2"
     inkscape:zoom="5.8702702"
     inkscape:cx="482.47261"
     inkscape:cy="383.20925"
     inkscape:document-units="px"
     inkscape:current-layer="layer1"
     showgrid="false"
     inkscape:window-width="645"
     inkscape:window-height="723"
     inkscape:window-x="20"
     inkscape:window-y="42" />
  <metadata
     id="metadata2468">
    <rdf:RDF>
      <cc:Work
         rdf:about="">
        <dc:format>image/svg+xml</dc:format>
        <dc:type
           rdf:resource="http://purl.org/dc/dcmitype/StillImage" />
      </cc:Work>
    </rdf:RDF>
  </metadata>
  <g
     inkscape:label="Ebene 1"
     inkscape:groupmode="layer"
     id="layer1"
     transform="translate(-40.383978,-159.52415)">
    <path
       style="fill:none;fill-rule:evenodd;stroke:#000000;stroke-width:1px;stroke-linecap:butt;stroke-linejoin:miter;stroke-opacity:1"
       d="M 222.13628,196.52425 L 267.10866,294.64579 L 367.9558,334.16697 L 464.71455,238.77102"
       id="path2473" />
    <path
       style="fill:none;fill-rule:evenodd;stroke:#000000;stroke-width:1px;stroke-linecap:butt;stroke-linejoin:miter;stroke-opacity:1"
       d="M 263.02026,294.64579 L 186.7035,445.91651 L 81.767956,479.98649"
       id="path2475" />
    <path
       style="fill:none;fill-rule:evenodd;stroke:#000000;stroke-width:1px;stroke-linecap:butt;stroke-linejoin:miter;stroke-opacity:1"
       d="M 366.593,335.52977 L 410.20258,523.59607 L 562.8361,544.03806"
       id="path2477" />
    <path
       style="fill:none;fill-rule:evenodd;stroke:#000000;stroke-width:1px;stroke-linecap:butt;stroke-linejoin:miter;stroke-opacity:1"
       d="M 188.0663,445.91651 L 268.47145,531.77286 L 410.20258,522.23327"
       id="path2479" />
    <path
       style="fill:none;fill-rule:evenodd;stroke:#000000;stroke-width:1px;stroke-linecap:butt;stroke-linejoin:miter;stroke-opacity:1"
       d="M 264.38306,531.77286 L 216.68508,676.22959"
       id="path2481" />
    <path
       sodipodi:type="arc"
       style="opacity:1;fill:#ff0000;fill-opacity:0;stroke:#000000;stroke-opacity:1"
       id="path2483"
       sodipodi:cx="267.79007"
       sodipodi:cy="103.17249"
       sodipodi:rx="4.7697973"
       sodipodi:ry="6.1325965"
       d="M 272.55987,103.17249 A 4.7697973,6.1325965 0 1 1 263.02027,103.17249 A 4.7697973,6.1325965 0 1 1 272.55987,103.17249 z"
       transform="translate(69.502762,126.74033)" />
    <path
       sodipodi:type="arc"
       style="opacity:1;fill:#ff0000;fill-opacity:0;stroke:#000000;stroke-opacity:1"
       id="path2485"
       sodipodi:cx="267.79007"
       sodipodi:cy="103.17249"
       sodipodi:rx="4.7697973"
       sodipodi:ry="6.1325965"
       d="M 272.55987,103.17249 A 4.7697973,6.1325965 0 1 1 263.02027,103.17249 A 4.7697973,6.1325965 0 1 1 272.55987,103.17249 z"
       transform="translate(-141.3365,209.62116)" />
    <path
       sodipodi:type="arc"
       style="opacity:1;fill:#ff0000;fill-opacity:0;stroke:#000000;stroke-opacity:1"
       id="path2487"
       sodipodi:cx="267.79007"
       sodipodi:cy="103.17249"
       sodipodi:rx="4.7697973"
       sodipodi:ry="6.1325965"
       d="M 272.55987,103.17249 A 4.7697973,6.1325965 0 1 1 263.02027,103.17249 A 4.7697973,6.1325965 0 1 1 272.55987,103.17249 z"
       transform="translate(26.287806,315.9195)" />
    <path
       sodipodi:type="arc"
       style="opacity:1;fill:#ff0000;fill-opacity:0;stroke:#000000;stroke-opacity:1"
       id="path2489"
       sodipodi:cx="267.79007"
       sodipodi:cy="103.17249"
       sodipodi:rx="4.7697973"
       sodipodi:ry="6.1325965"
       d="M 272.55987,103.17249 A 4.7697973,6.1325965 0 1 1 263.02027,103.17249 A 4.7697973,6.1325965 0 1 1 272.55987,103.17249 z"
       transform="translate(234.79609,292.75191)" />
    <path
       sodipodi:type="arc"
       style="opacity:1;fill:#ff0000;fill-opacity:0;stroke:#000000;stroke-opacity:1"
       id="path2491"
       sodipodi:cx="267.79007"
       sodipodi:cy="103.17249"
       sodipodi:rx="4.7697973"
       sodipodi:ry="6.1325965"
       d="M 272.55987,103.17249 A 4.7697973,6.1325965 0 1 1 263.02027,103.17249 A 4.7697973,6.1325965 0 1 1 272.55987,103.17249 z"
       transform="translate(-90.626165,431.32597)" />
    <path
       sodipodi:type="arc"
       style="opacity:1;fill:#ff0000;fill-opacity:0;stroke:#000000;stroke-opacity:1"
       id="path2493"
       sodipodi:cx="267.79007"
       sodipodi:cy="103.17249"
       sodipodi:rx="4.7697973"
       sodipodi:ry="6.1325965"
       d="M 272.55987,103.17249 A 4.7697973,6.1325965 0 1 1 263.02027,103.17249 A 4.7697973,6.1325965 0 1 1 272.55987,103.17249 z"
       transform="translate(100.16573,511.73112)" />
    <path
       style="fill:none;fill-rule:evenodd;stroke:#000000;stroke-width:1px;stroke-linecap:butt;stroke-linejoin:miter;stroke-opacity:1"
       d="M 40.883978,365.51135 L 705.93002,360.06016"
       id="path2495" />
    <text
       xml:space="preserve"
       style="font-size:20px;font-style:normal;font-weight:normal;fill:#000000;fill-opacity:1;stroke:none;stroke-width:1px;stroke-linecap:butt;stroke-linejoin:miter;stroke-opacity:1;font-family:Bitstream Vera Sans"
       x="535.75049"
       y="350.35022"
       id="text2497"><tspan
         sodipodi:role="line"
         id="tspan2499"
         x="535.75049"
         y="350.35022">sweep line</tspan></text>
    <text
       xml:space="preserve"
       style="font-size:20px;font-style:normal;font-weight:normal;fill:#000000;fill-opacity:1;stroke:none;stroke-width:1px;stroke-linecap:butt;stroke-linejoin:miter;stroke-opacity:1;font-family:Bitstream Vera Sans"
       x="54.511971"
       y="174.71947"
       id="text2501"><tspan
         sodipodi:role="line"
         id="tspan2503"
         x="54.511971"
         y="174.71947">schon konstruiert</tspan></text>
    <text
       xml:space="preserve"
       style="font-size:20px;font-style:normal;font-weight:normal;fill:#000000;fill-opacity:1;stroke:none;stroke-width:1px;stroke-linecap:butt;stroke-linejoin:miter;stroke-opacity:1;font-family:Bitstream Vera Sans"
       x="49.060772"
       y="700.75995"
       id="text2505"><tspan
         sodipodi:role="line"
         id="tspan2507"
         x="49.060772"
         y="700.75995">noch zu konstruieren</tspan></text>
    <path
       style="fill:none;fill-rule:evenodd;stroke:#000000;stroke-width:1px;stroke-linecap:butt;stroke-linejoin:miter;stroke-opacity:1"
       d="M 61.325967,313.72498 L 85.856354,335.52977 L 107.66114,340.98097 L 128.10313,342.34377 L 145.81952,340.98097 L 182.6151,332.80417 L 193.5175,327.35297 L 208.50829,315.08778 L 222.13628,305.54819 L 237.12707,294.64579 L 245.30387,285.1062 L 254.84346,279.655 L 256.20626,274.2038 L 268.47145,285.1062 L 298.45304,297.37139 L 322.98343,304.18539 L 346.15101,305.54819 L 369.3186,302.82259 L 388.39779,298.73419 L 406.11418,286.469 L 418.37937,281.0178 L 423.83057,275.5666 L 436.09576,285.1062 L 456.53775,294.64579 L 474.25414,296.00859 L 515.13812,296.00859 L 531.49171,297.37139 L 583.27808,282.3806 L 632.33886,257.85021 L 656.86924,237.40822"
       id="path2588" />
    <text
       xml:space="preserve"
       style="font-size:20px;font-style:normal;font-weight:normal;fill:#000000;fill-opacity:1;stroke:none;stroke-width:1px;stroke-linecap:butt;stroke-linejoin:miter;stroke-opacity:1;font-family:Bitstream Vera Sans"
       x="637.79004"
       y="227.86864"
       id="text2590"><tspan
         sodipodi:role="line"
         x="637.79004"
         y="227.86864"
         id="tspan2594">beach line</tspan></text>
  </g>
</svg>
